<?xml version="1.0" encoding="UTF-8"?>
<svg id="Layer_1" data-name="Layer 1" xmlns="http://www.w3.org/2000/svg" width="848.449" height="638.245" viewBox="0 0 848.449 638.245">
  <defs>
    <style>
      .cls-1 {
        fill: #1a5c8e;
      }

      .cls-1, .cls-2, .cls-3, .cls-4, .cls-5, .cls-6, .cls-7, .cls-8, .cls-9 {
        stroke-width: 0px;
      }

      .cls-2 {
        fill: #35dcca;
      }

      .cls-3 {
        fill: #0cd6fc;
      }

      .cls-4 {
        fill: #0c0b28;
      }

      .cls-5 {
        fill: rgba(153,0,255, 0.3);
      }

      .cls-6 {
        fill: #66fdb3;
      }

      .cls-7 {
        fill: #fff;
      }

      .cls-8 {
        fill: #fefefe;
      }

      .cls-9 {
        fill: #f81142;
      }
    </style>
  </defs>
  <g id="dJbto0">
    <g>
      <g id="DANK">
        <path class="cls-4" d="m531.451,436.723c-1.02,5.055-.556,9.851-1.269,14.884-.596,4.21-2.919,7.064-6.819,8.641-8.491,3.433-20.412,3.651-27.911-2.212-1.864-1.457-3.12-2.824-3.795-5.141-.361-1.239.006-2.876-1.278-3.571-1.046-.566-5.053,1.655-6.021,1.969-2.64.858-5.198,1.829-7.906,2.47-4.898,1.16-9.869,2.232-14.846,2.986-2.6.394-5.241.496-7.833.886-3.044.458-3.924.293-4.402,3.165-.76,4.562,1.076,8.59-2.031,12.66-3.175,4.159-9.659,5.782-14.609,6.098-8.433.54-19.801-1.922-20.431-11.983-.134-2.129.096-4.289-.041-6.425-.185-2.899-.002-2.542-2.562-2.932-4.968-.757-10.023-1.453-14.96-2.597-4.287-.994-8.697-1.87-12.888-3.207-1.941-.619-4.992-2.834-7.004-2.921-2.415-.103-1.963,1.685-2.697,3.708-3.575,9.857-18.951,10.163-27.359,8.319-4.776-1.047-9.195-3.302-10.653-8.279-1.635-5.584.151-11.631-1.418-17.296.343-2.531,2.806-4.015,3.276-6.57.403-2.194.205-5.524-.246-7.704.582-1.103.311-2.331.512-3.49.202-.378.634-.726.158-1.194,2.031-5.462,6.554-7.998,11.443-10.556,2.939-1.538,6.408-2.836,9.112-4.744,2.479-1.75,1.486-3.123.438-5.893.035-1.731-.479-3.449-.134-5.188-.173-1.201-.799-1.25-1.672-.654-.478.327-.912.744-1.43.986-8.999,4.204-17.292,9.725-26.226,14.052-6.325,3.064-12.567,3.871-18.871-.062-1.019-.636-2.027-1.521-3.476-1.311,2.699,2.839,6.271,4.284,9.686,5.975.394.195.788.39,1.182.585,1.265,1.035,4.177,2.432,4.177,2.432,1.151.984,2.517,1.605,3.847,2.289.176.272.352.545.529.817-.214,4.852-.331,9.704.027,14.553.052.7-.278.933-.872,1.006-2.716-1.504-5.705-2.532-8.072-4.643.416-2.818,1.457-8.503-.17-10.949-1.679-2.526-8.344-4.96-10.964-6.046-3.267-2.673-8.059-3.324-10.528-6.952-2.384-3.504-2.134-9.522-2.289-13.562-.07-1.826.706-4.309-.335-5.764-1.015-1.419-5.449-2.757-6.936-3.529-4.245-2.205-7.836-4.975-10.86-8.715-1.431-1.769-2.517-3.557-3.234-5.719-.412-1.243-.364-3.7-1.485-4.573-1.162-.904-3.257-.387-4.639-.589-2.204-.321-4.339-1.238-6.163-2.503-7.004-4.858-8.988-14.386-4.084-21.323,1.289-1.823,5.803-4.265,5.843-6.339.093-4.73-5.897-3.86-8.525-4.322-10.288-1.807-11.042-14.018-9.261-22.409.844-3.976,4.334-7.094,8.019-8.573,2.907-1.166,7.188-.452,8.918-3.405,1.747-2.981,1.565-7.605,2.794-10.923,1.839-4.966,1.81-9.111,1.8-14.407-.009-4.91.05-9.821.028-14.731-.019-4.164-1.434-8.761,1.262-12.414,4.601-6.232,17.341-12.038,24.893-9.511,2.621.877,6.165,4.974,8.957,3.677,1.551-.721,2.693-3.701,3.319-5.181,1.136-2.686.459-2.389-1.07-4.767-2.521-3.923-1.87-8.052-1.95-12.47-.078-4.3.297-7.844,3.738-10.83,6.203-5.384,16.55-5.875,23.709-2.23,1.531.779,2.931,1.812,4.012,3.158.976,1.215,1.316,2.854,2.808,3.491,1.606.686,5.461-.1,7.252-.019,2.677.121,5.358.436,7.961,1.093,4.34,1.096,8.672,2.954,12.388,5.462,2.041,1.378,6.816,7.943,8.914,6.767,1.17-.656,2.172-4.051,2.774-5.164,1.162-2.147,2.469-4.209,3.912-6.178,1.587-2.166,8.287-7.496,7.647-10.275-.311-1.35-3.129-3.065-4.208-3.845-1.812-1.312-2.577-.965-4.58-1.488-4.147-1.083-4.505-6.452-.266-7.754,3.732-1.146,4.309,2.586,4.792,4.99.43,2.141,1.094,2.773,3.042,4.376,2.886,2.375,3.618,3.043,6.693,1.043,17.046-11.088,37.447-15.36,57.332-9.947,4.414,1.202,8.738,2.749,12.83,4.803,3.32,1.666,8.777,7.302,12.273,6.197,1.27-.401,4.282-2.828,5.139-3.905,1.269-1.593.262-2.288.643-3.956.995-4.351,8.104-4.929,8.407.051.269,4.414-4.615,3.641-6.98,4.65-1.22.521-3.859,2.656-4.758,3.708-1.556,1.819-1.249,2.266.314,4.045,3.057,3.479,6.196,6.562,8.623,10.564,1.067,1.759,2.022,3.579,2.966,5.405,1.214,2.351,1.08,3.888,3.443,2.861,1.298-.564,3.07-3.251,4.174-4.23,1.659-1.472,3.446-2.793,5.348-3.935,4.046-2.429,8.61-4.07,13.254-4.888,3.518-.62,9.05.903,12.09-.816,1.278-.723,1.91-2.281,2.87-3.331,1.559-1.705,3.507-2.894,5.658-3.704,7.217-2.719,18.013-2.107,23.086,4.52,2.626,3.43,1.947,7.57,1.985,11.621.02,2.172.186,4.313-.409,6.427-.567,2.017-2.764,3.724-3.156,5.57-.429,2.018,2.9,9.095,5.417,9.167,1.728.049,3.714-2.254,5.15-3.08,1.962-1.129,4.112-1.849,6.361-2.094,7.069-.769,18.555,3.948,21.865,10.649,1.847,3.738.977,8.62.931,12.617-.067,5.797-.113,11.597-.007,17.394.083,4.576.424,8.931,1.575,13.371.686,2.647,1.344,5.171,1.371,7.938.027,2.716-.622,3.383,1.692,4.62,3.846,2.056,8.06,1.958,11.567,5.03,4.161,3.644,4.524,7.633,4.595,12.898.057,4.213.757,9.524-1.274,13.418-.785,1.505-1.951,2.628-3.393,3.498-.747.45-4.078,1.183-4.128,2.282-.054,1.194,1.714,1.737,2.444,2.443,1.469,1.422,1.803,2.147,2.223,4.237.939,4.683.791,10.457-1.845,14.622-1.73,2.735-4.485,4.351-7.521,5.277-2.869.875-7.088.52-8.941,3.28-.94,1.4-.946,3.364-1.52,4.921-.732,1.985-1.868,3.6-3.237,5.196-1.855,2.163-2.229,1.522-.995,3.944,1.109,2.176,1.916,3.326,2.162,5.907.872,9.163,1.183,20.164-9.465,22.788-7.442,1.834-22.219,1.881-24.602-7.776-.28-1.137.271-3.574-1.228-3.983-1.054-.287-4.246,2.316-5.234,2.825-4.447,2.289-9.449,3.354-14.413,3.735-4.41.339-8.504-.128-12.619-1.792-1.234-.499-9.849-5.678-10.456-5.004,0,0-.07.021-.07.021-.227-1.209-4.869-3.612-5.881-3.833-.508.884-.201,1.5.15,2.112.002.328.005.656.007.983-.49,1.53-.365,3.13-.536,4.696-.069.429-.139.858-.208,1.288-2.232,2.508,8.789,6.843,10.693,7.835,4.52,2.357,9.097,4.835,11.739,9.402l-.023-.035c-.182.56.174.96.415,1.394.724,1.615-.349,3.348.328,4.965.165,2.462-.799,5.943-.226,8.246.56,2.252,2.67,4.082,3.422,6.378Zm50.964-87.061c.108.185.216.37.324.554.59.579,1.55.966,1.19,2.068-.481,1.475.307,2.196,1.538,2.631,5.748,2.032,11.484,1.874,16.97-.702,5.385-2.528,8-10.839,4.075-14.963-4.421-8.222-26.105-7.713-27.529,2.795-.525,1.43-.464,2.814.33,4.139.538,1.623,1.62,2.759,3.141,3.5,0,0-.039-.022-.039-.022Zm-259.964-16.382h-.001c2.097-1.313,1.62-3.403-1.063-3.196l.011.01c-.065-.469-.449-.306-.722-.363l.028.017c-.244-1.225-4.019-2.536-4.995-3.067-2.394-1.304-4.817-2.566-7.151-3.978-3.478-2.105-7.129-4.514-9.058-8.226-.908-1.748-.957-3.404-1.433-5.24-.702-2.702-1.494-2.811-4.101-3.973-4.075-1.817-7.993-3.975-11.947-6.033-4.093-2.13-8.496-4.106-12.071-7.077-1.609-1.337-2.842-2.819-3.669-4.749-.478-1.116-.786-3.953-2.556-2.407-.624.545-1.303,5.106-1.11,5.82.571,2.115,2.161,2.046,4.127,2.634,4.387,1.312,6.973,3.848,10.056,7.106.854,2.639,1.102,5.293.252,7.99-.097.309-.112.695.242.935,2.121,3.455,8.624,5.746,12.028,7.726,3.929,2.287,7.969,4.415,11.789,6.883,3.791,2.449,6.82,5.259,9.916,8.498,1.154,1.208,7.701,7.31,8.341,3.528l-.032.02c1.44-.516,2.158-1.819,3.12-2.857Zm209.75-4.822l.019.012c.334.054.552-.095.685-.393,5.726-3.04,11.369-6.226,16.93-9.557,1.104-.661,2.091-1.47,2.672-2.67,3.237-4.854,3.354-10.18,2.078-15.585-1.416-5.992-5.172-10.506-9.788-14.378-2.946-4.007-10.158-6.309-14.779-7.125-6.144-1.085-12.587-.975-18.723.066-5.821.988-11.484,2.783-17.459,2.042-3.241-.402-5.791-1.654-8.767-2.819-2.324-.909-3.456-.417-1.792,2.115-.31,3.911-.312,8.655.869,12.464.943,3.041,3.435,4.128,6.437,4.936,7.682,2.067,14.574-1.708,21.588-4.192,10.648-3.771,27.84-2.283,31.118,10.836.029,1.961-.161,3.905-.453,5.841-2.89,4.849-6.434,7.302-11.329,10.071-1.84,1.041-11.403,4.687-5.554,5.932.415.214.831.427,1.246.641,1.465.814,2.784,1.942,4.545,2.123.255.01.43-.082.458-.36Zm-234.945-37.171l.032.022c-4.528-2.31-8.81-4.936-11.776-9.238.026-.111-.015-.186-.123-.223-2.619-2.752-1.465-9.533-1.423-12.992.052-4.241-2.842-4.775-6.284-6.869.127,1.991,1.26,6.481.55,8.279-.963,2.438-4.451,2.726-5.51.177-.992-2.387,1.483-5.746.712-8.692-.714-2.729-2.821-3.996-5.676-5.154v16.194c-.208,3.337-.829,6.714.942,9.863.805,2.911,2.484,5.256,4.966,6.895,7.114,4.698,14.657,8.612,22.486,11.975,1.299.558,1.765.089,1.387-1.258.099-.403.198-.806.297-1.208.669-1.338,1.218-2.721,1.543-4.186.139-.249.278-.499.418-.748.764-.718,1.3-1.431-.042-2.107-.532-.323-1.128-.393-1.73-.441-.256-.096-.513-.193-.769-.289Zm259.381-4.075c1.898-.427,3.529-1.444,5.158-2.427,1.515-.915,3.313-1.487,4.224-3.207,2.378-2.056,2.482-4.804,2.514-7.709.015-1.348.775-5.916-.355-6.8-.86-.672-5.899.446-7.285.144-1.231-.268-4.929-2.715-6.1-2.002.076,4.513.754,9.129-1.106,13.522-1.251,1.887-3.71,3.41-2.821,5.675.749,1.908,4.003,4.344,5.769,2.803Zm-168.83,92.891c.217-.128.434-.256.651-.384.411.015.657-.203.799-.567,1.709-1.171,8.249-2.986,5.089-4.861-2.483-1.473-5.717,3.561-7.294,5.404-.576.186-1.027.457-.796,1.27.746.112,1.281-.113,1.551-.863Zm89.026,33.647l-.008-.08c-.098.217,22.858,14.394,24.575,13.231,2.393-.638,4.787-1.277,7.18-1.915,2.518-2.946-23.451-15.896-26.355-17.132-2.001.354-3.696,1.314-5.214,2.627-5.351,2.054-10.216,5.09-15.667,7.584,1.021,1.197,3.131,3.351,4.663,3.853,2.293.752,3.591-.653,5.563-1.882,2.282-1.423,2.263-1.147,2.708-3.504.274-1.457-1.128-2.688.926-3.624.54.288.922.882,1.631.843Zm99.363-85.093c-.38-1.026-.978-.933-1.676-.327-.157.106-.314.211-.472.317-6.654,3.603-13.308,7.206-19.962,10.809-2.202.88-4.404,1.76-6.607,2.641-.382.088-4.208,1.598-1.491,2.095,1.487.535,3.049.541,4.595.656,4.471.95,8.897.522,13.305-.434.261-.06.523-.12.784-.18,5.131-.415,8.561-3.727,11.496-7.455.861-1.094,5.578-4.038,5.684-5.044.072-.685-4.954-2.888-5.68-3.095l.023.018Zm-189.418,82.148c-1.114-1.379-2.799-1.878-4.243-2.749-.364-.427-.721-.355-1.076.013-5.05,2.601-9.867,5.632-14.946,8.178-3.278,1.643-10.603,3.727-10.856,8.229-.057.646.44.818.881.836,1.992.085,3.793.958,5.715,1.314,1.543,1.626,10.672-4.554,12.737-5.663,4.589-2.463,9.416-4.694,13.714-7.652,1.526.824,1.461,2.162.608,3.222-1.066,1.323-.852,1.94.618,2.501.587.224,1.1.643,1.65.966q4.464,2.616,8.518-.454c1.296-.981,1.236-1.368-.261-2.144-2.163-1.122-4.272-2.353-6.473-3.392-1.924-.908-3.63-2.276-5.757-2.754-.283-.156-.565-.311-.848-.467l.018.017Zm-85.69-123.1c.567-.134.668,1.325,1.458.426,1.06-.069,5.204-3.348,5.475-4.555.288-1.287-1.55-3.174-2.671-3.84-.994-2.053-1.638-4.263-1.859-6.535-.164-1.676.828-5.526.024-6.932-.727-1.273.058-.813-1.403-.92-1.385-.101-4.218,1.839-5.878,2.049-1.775.225-4.7-.882-6.203-.44-1.967.578-1.356.545-1.281,2.918.133,4.197-.667,8.079,2.205,11.598-.007.444.254.714.567.996,2.777,2.502,5.963,4.247,9.566,5.235Zm104.476,70.136c-2.443,3.054-4.872,6.098-7.396,9.085-.792.938-1.691,1.286-1.315,2.418.183.551,3.805,2.533,4.441,2.616,2.737.356,3.194-1.473,4.529-3.654,1.7-2.777,4.201-4.622,6.974-6.255,2.919.485-.518-2.05-1.206-2.371-.886-.415-5.898-3.694-6.028-1.839Zm49.925-.428c-.498-2.512-11.086,3.448-7.938,4.396,3.234,1.672,5.806,3.946,7.964,6.854,2.687,3.62,3.498,4.393,7.374,2.082,2.762-1.647,2.598-1.373.472-3.871-2.657-3.123-5.242-6.315-7.872-9.462Zm53.784-37.935c2.407,1.235,6.212,3.358,8.816,2.959,2.982-.457,6.825-3.876,9.531-5.411,4.692-2.662,14.219-6.866,9.032-13.584-.373-3.033-5.463,1.23-6.596,1.855-3.071,1.693-6.115,3.43-9.165,5.162-3.352,1.903-6.715,3.786-10.068,5.688-.771.437-6.435,4.063-1.549,3.332Zm76.371,63.356c1.864-2.744-5.462-6.267-7.125-6.808-3.508-1.141-7.953-.959-11.479.061-6.65,1.924-11.807,9.876-3.763,13.825,1.787,3.617,10.429,2.971,13.577,2.249,3.796-.871,10.532-4.403,8.79-9.327Zm5.124-141.316c-2.009-5.369-10.807-9.07-16.045-9.503-3.176-.262-6.538.342-8.961,2.522-.778.7-1.929,1.853-2.317,2.876-.816,2.15.929,2.813.614,4.541-.938.567-3.516-.073-4.811.357-1.668.554-3.199,1.475-4.475,2.68-2.44,2.306-4.264,6.688-1.811,9.728,2.479,6.672,11.435,9.062,17.584,5.737,4.031-2.18,7.764-4.912,11.63-7.398,2.861-1.161,5.557-2.561,7.691-4.887,1.917-2.09,2.216-4.014.899-6.655Zm-31.511,55.48c.08,1.151.161,2.302.241,3.452.034.851.625,1.272,1.285,1.794.451-.517.838-.963,1.226-1.408l-.019-.014c1.383,1.171,15.551-7.948,17.51-9.052,5.192-2.925,9.914-5.952,10.829-12.325.411-1.271.183-2.599.343-3.892.048-4.515.111-9.031.146-13.546.036-4.648.089-5.664-3.898-2.987-2.907,1.951-2.66,4.061-2.122,7.687.319,2.153.994,5.751-2.651,5.486-6.1-.444,1.068-9.354-3.375-9.093-.407.024-4.254,2.157-4.603,2.522-1.272,1.329-1.138,2.043-1.134,4.004.009,4.034.5,8.055-1.106,11.901-.11.06-.151.151-.122.273-3.549,5.641-9.743,7.493-15.295,10.47,1.599,1.323,1.796,3.233,2.746,4.73Zm-22.06,35.844c3.42,3.433,4.823,5.936,9.853,4.491,4.389-1.261,8.425-3.816,12.438-5.938,2.34-1.237,4.678-2.479,7.017-3.719,1.519-.805,4.489-1.688,5.53-3.091,1.866-2.514.511-8.972.462-12.019,1.891-4.126-6.382,1.451-7.271,1.976-3.771,2.227-7.585,4.378-11.403,6.523-4.078,2.29-8.163,4.569-12.251,6.841-1.042.579-9.036,5.073-4.375,4.936Zm-119.327,127.304c5.451,9.484,32.686,4.814,26.994-6.55-.927-7.578-13.77-7.985-19.26-6.742-5.042,1.142-14.622,7.897-7.734,13.292Zm-132.733-121.226c-2.228-5.836-11.008-6.511-16.205-5.892-3.714.443-15.893,3.954-13.334,10.014-.249,5.028,1.809,8.737,6.385,10.957,1.24.602,4.773,2.396,6.003,1.673,1.53-.9.555-2.165.873-3.639.796-3.695,7.345-4.318,10.468-5.696,2.089-.921,8.434-4.346,5.809-7.418Zm30.317-30.551c.004-1.294-.064-2.578-.491-3.817,3.03-14.825,22.427-14.547,33.352-10.29,7.061,2.752,13.827,5.108,21.433,2.853,3.741-1.11,4.047-2.58,4.675-6.299.578-3.422,1.015-6.885.339-10.331.288-.759,1.543-2.871.494-3.565-1.046-.692-1.857.89-2.67,1.237-3.337,1.426-6.618,2.476-10.273,2.676-8.259.453-16.102-2.924-24.395-2.849-12.953.117-28.122,5.126-33.843,17.895-2.811,6.273-3.455,14.653,2.118,19.613,5.539,4.929,13.519,8.751,20.113,12.094,3.214,1.629,4.809.024,7.928-1.712,3.187-1.773,1.28-1.99-1.862-3.634-6.245-3.269-14.42-6.707-16.918-13.871Zm206.349,124.428c-5.078-4.462-14.517-4.433-20.368-1.479-2.649,1.338-6.14,4.268-6.631,7.409-.575,3.677,3.157,6.905,6.29,8.007,6.571,3.372,14.444,2.938,20.814-.762,5.543-3.22,6.386-10.306-.105-13.175Zm-180.681,12.313c6.207,5.052,15.867,4.684,22.508.793,6.109-3.579,6.212-9.985.126-13.63-5.593-4.026-13.969-4.361-20.123-1.436-5.776,2.745-10.393,10.741-2.511,14.273Zm-12.425-56.787c2.368-4.238-3.39-8.882-6.669-10.568-4.249-2.184-9.186-2.64-13.852-1.86-4.638.775-9.743,2.883-11.756,7.513-1.682,3.87.292,7.655,4.006,9.348,2.182,2.376,5.773,4.823,8.447,6.623,2.783,1.873,6.62,3.308,9.98,3.275,9.615-.096,10.155-6.77,9.843-14.331Zm270.405-67.268c5.593-2.531,15.811-5.349,12.543-13.869-2.489-6.487-10.987-8.742-17.304-8.609-5.924.125-15.747,2.534-17.228,9.34-.741,3.407,1.031,6.839,3.623,8.958,2.407,1.968,6.392,1.916,8.374,4.204-.018,1.225-.906,7.162.088,8.219,1.052,1.119,3.637.114,5.106.135,1.533.022,4.152,1.227,5.181-.204.922-1.282-.155-6.635-.383-8.173Zm-303.124-83.971c-1.341-2.991-6.396-4.701-9.405-4.946-3.413-.278-6.962,1.138-9.959,2.663-3.129,1.592-6.872,3.652-8.746,6.732-2.025,3.328-.948,4.293,1.077,6.773,2.232,2.977,6.449,4.206,9.518,6.14,3.472,2.189,6.687,5.225,10.603,6.59,6.897,2.405,15.566-.431,17.743-7.846.261-.643.438-1.293.561-1.992.854-4.864-5.241-9.336-9.347-9.586.191-1.903-.055-3.609-2.044-4.529Zm84.496,153.048c-1.043,1.863-.843,3.807-.262,5.723,1.472,4.858,4.78,8.211,9.137,10.519,10.941,5.794,21.761,11.822,32.961,17.118,1.104.522,2.178,1.079,2.16,2.634-.057,4.881-.028,9.763-.073,14.645-.011,1.199.463,1.826,1.661,1.593,3.186-.62,6.356-.597,9.541-.011.911.168,1.462-.239,1.45-1.234-.054-4.772-.034-9.546-.2-14.313-.056-1.602.513-2.599,1.883-3.165,5.75-2.376,11.307-5.154,16.832-8.001,7.131-3.674,14.458-6.973,21.381-11.043,4.845-2.848,7.203-8.668,5.671-13.598,1.78-2.863-11.492-8.462-13.538-9.566-2.604-1.405-6.524-4.537-9.456-5.091-1.782-.337-2.626-.841-1.558,1.492.036,3.655-1.2,9.217,1.853,11.435,2.882,2.094,7.198,4.695,10.858,4.738,2.075,3.06-12.889,6.67-13.901,10.28-15.103,12.495-35.529,12.408-51.187.932.116-2.72-4.849-4.277-6.789-5.35-2.417-1.337-8-3.167-9.212-5.71.853-.748,3.43-.481,4.637-.988,2.159-.908,4.624-2.301,6.565-3.611,3.673-2.48,2.193-7.903,2.143-11.979.803-2.861-2.934-.143-3.677.277-2.51,1.422-5.014,2.855-7.52,4.286-1.842,1.052-12.566,5.32-11.357,7.989Zm144.125-176.662c0-3.612,1.147-6.133-2.952-6.377-3.331-.198-6.635-.076-9.907.623-6.378,1.361-12.381,4.446-16.952,9.128-2.233,2.288-3.855,3.863-3.664,6.84.201,3.123,1.792,6.681,2.226,9.901.878,6.513.822,13.311-.796,19.71-.774,3.061-1.748,6.144-2.965,9.06-.597,1.431-1.256,2.838-2.048,4.172-.631,1.062-2.436,2.707-2.761,3.818-1.256,4.296,7.223,5.89,10.66,6.162,3.03.24,9.316.432,11.843-1.56,1.559-1.229,1.761-4.106,2.505-5.85,1.943-4.55,4.993-8.494,8.649-11.8,4.557-4.122,9.994-7.519,15.538-10.152,2.616-1.242,5.348-2.439,8.129-3.265,2.777-.824,6.225-.41,8.693-2.002,1.659-1.07,4.35-3.149,5.623-4.486,1.999-2.101-.055-2.697-1.705-4.518-1.803-1.991-2.682-5.142-5.221-5.683-.607-.129-3.165.73-3.606.794-1.799.262-3.627.289-5.44.192-2.105-.113-6.033-1.806-7.723-.156-1.285,1.255-1.588,4.628-2.745,6.309-3.29,4.78-8.728,7.154-13.71,9.725-4.105,2.118-12.329,6.228-13.482,11.316-.438,1.931.98,2.683-.221,4.579-1.253,1.978-3.654,2.037-4.747-.212-1.795-3.693,5.175-11.214,7.887-13.423,4.164-3.392,9.082-5.556,13.78-8.077,2.904-1.559,5.228-3.014,7.051-5.805.963-1.473,2.955-3.685,2.855-5.508-.116-2.132-2.581-3.478-3.609-5.187-1.572-2.614-1.187-5.356-1.186-8.269Zm-163.932,62.897c3.993-.259,7.782-.453,11.049-3.104,2.736-2.221,1.444-2.51-.456-5.455-3.508-5.435-5.478-12.061-6.32-18.432-.93-7.04-.72-14.339,1.061-21.229.813-3.148,2.538-5.257.688-8.143-1.632-2.546-4.007-4.771-6.421-6.56-4.822-3.573-10.772-5.596-16.709-6.25-1.827-.201-6.872-.971-8.526.016-2.068,1.234-1.296,3.821-1.32,6.234-.03,3.067.13,5.918-1.635,8.592-1.577,2.389-3.41,2.465-2.609,5.571,1.268,4.916,5.268,8.061,9.494,10.398,5.737,3.173,11.408,5.364,16.021,10.247,1.793,1.898,2.92,3.855,4.083,6.165.823,1.635,2.624,3.258,2.061,5.032-.733,2.312-3.994,2.655-5.15.641-.834-1.453.231-2.477-.011-3.899-.235-1.386-1.318-2.55-2.155-3.611-3.274-4.152-7.431-6.818-12.086-9.177-4.943-2.506-10.016-4.76-13.375-9.39-1.163-1.603-1.829-5.376-3.203-6.491-1.429-1.16-5.56.641-7.229.746-2.175.137-4.332-.003-6.473-.395-1.019-.187-2.658-1.096-3.619-.771-1.547.522-2.11,3.071-3.056,4.354-1.682,2.282-4.333,2.822-2.574,5.37,1,1.449,4.404,3.319,5.932,4.425,2.558,1.852,4.879,1.473,7.89,2.003,2.727.48,5.32,1.558,7.841,2.668,5.524,2.433,10.768,5.569,15.403,9.449,4.317,3.615,7.805,8.077,9.965,13.297.775,1.872.963,4.839,2.563,6.213,2.206,1.895,6.212,1.334,8.875,1.483Zm69.052,85.648c-7.673-.181-24.475,4.859-20.848,15.777,2.993,9.008,15.081,11.193,23.193,10.882,7.142-.274,22.766-4.493,20.277-14.731-2.35-9.665-14.348-12.052-22.622-11.928Zm61.162,78.963c0-2.154.202-2.58-1.642-3.689-2.176-1.309-5.454-1.761-7.845-2.744-2.664-1.096-5.289-2.307-7.868-3.591-2.408-1.199-5.001-3.369-7.782-3.056-2.772.311-5.91,2.797-8.36,4.07-2.672,1.388-5.357,2.758-8.103,3.996-3.693,1.663-11.989,3.563-6.522,8.632,1.665,1.544,3.757,2.467,5.067,4.457.88,1.337.534,4.18,1.459,5.137,1.307,1.352,5.248.058,6.755-.166,3.382-.502,6.758-1.079,10.122-1.694,5.955-1.088,11.88-2.441,17.616-4.395,4.416-1.504,7.451-1.893,7.102-6.956Zm-117.882.554c.075,4.714,3.421,5.237,7.618,6.788,5.663,2.093,11.675,3.317,17.575,4.545,3.573.744,11.956,3.59,14.003.218,1.287-2.119,1.427-4.205,3.426-6.107,1.581-1.504,4.025-2.14,4.63-4.326,1.401-5.057-8.77-7.23-12.091-8.946-4.012-2.073-9.489-7.025-14.083-5.082-5.165,2.185-9.996,5.277-15.346,7.18-3.617,1.286-5.801,1.445-5.733,5.728Zm96.595-109.412c-.06,1.111.499,1.965,1.056,2.705,3.102,4.129,5.897,8.473,9.058,12.568,2.677,3.468,5.574,6.685,8.765,9.649,2,1.857,4.038,3.68,5.743,5.81,2.856,3.568,5.899,7.019,7.303,11.537.402,1.295,1.449,1.355,2.518.553,2.741-2.058,5.814-3.596,8.742-5.338,3.311-1.971,5.797-4.718,8.423-7.378.79-.801.727-1.461-.373-2.03-8.149-4.219-16.157-8.695-24.102-13.285-8.488-4.904-17.395-9.067-25.609-14.46-.377-.248-.781-.516-1.522-.329Zm-78.72.617c-17.053,9.31-33.985,18.555-51.106,27.902,4.682,4.906,9.368,8.071,15.172,11.486,2.887,1.698,4.15,3.737,6.151.681,1.837-2.804,3.147-5.676,5.289-8.326,4.428-5.478,9.741-10.167,14.109-15.708,2.158-2.738,4.11-5.629,6.06-8.516,1.107-1.639,4.875-5.367,4.325-7.519Zm16.3,51.958c1.004,6.676-1.143,13.247,4.522,18.275,5.239,4.65,12.752,5.842,19.524,5.817,6.552-.024,13.985-1.718,18.917-6.352,2.158-2.027,3.525-4.584,3.823-7.548.229-2.284.763-8.288-.431-10.063-12.328,11.729-34.174,11.586-46.354-.13Zm-97.164-39.659c1.666.344,6.207-.14,6.089-2.69-.077-1.65-2.922-2.307-4.136-3.109-4.354-2.876-7.301-7.362-11.632-10.278-5.551-3.737-11.585-6.9-17.332-10.333-2.231-1.332-6.188-4.879-8.746-5.104-1.757-.155-3.838,1.973-5.573,2.622-.965.361-5.801.68-5.919,1.733-.138,1.231,3.711,2.537,4.565,3.025,5.618,3.205,11.509,6.279,16.832,9.959,4.072,2.815,6.169,7.26,10.238,9.973,4.621,3.081,10.146,4.094,15.615,4.202Zm35.066-70.906c3.92-.006-.675-7.075-1.586-8.561-2.513-4.097-6.471-7.229-10.329-10.001-3.809-2.737-7.906-5.018-12.287-6.7-2.255-.866-4.603-1.721-6.961-2.25-2.258-.507-2.684-.914-3.016,1.186-.32,2.026.749,4.325.243,6.617-.293,1.325-2.247,4.064-1.793,5.319.382,1.055,3.309,2.038,4.262,2.564,2.32,1.278,4.686,2.483,7.045,3.688,4.084,2.085,8.17,4.757,12.399,6.51,3.771,1.563,8.724-.287,12.021,1.628Zm174.917-.336c2.174-.426,3.565-.052,5.659-1.04,2.182-1.03,4.252-2.424,6.384-3.565,4.415-2.363,8.914-4.565,13.312-6.96,1.312-.714,3.913-1.54,4.319-3.178.369-1.491-1.44-4.328-1.562-5.995-.272-3.709,2.686-7.926-2.752-6.323-9.311,2.746-17.617,7.053-24.739,13.728-2.832,2.654-7.213,7.225-8.044,11.14-.785,3.698,4.839,2.663,7.423,2.195Zm13.033,122.872c4.822-.359,8.995-1.075,13.397-3.153,2.777-1.311,7.847-2.605,8.778-5.995,1.192-4.339-2.545-5.612-5.713-7.118-2.543-1.209-8.97-5.944-11.532-5.233-1.44.4-3.76,3.434-5.136,4.404-1.724,1.217-3.566,2.263-5.414,3.277-1.783.979-3.567,1.936-5.323,2.965-1.692.991-4.434,1.728-5.905,2.889-.984.776-1.761.369-.819,1.747.577.845,3.952,1.946,4.966,2.504,3.758,2.068,8.238,4.471,12.7,3.712Zm-211.073-23.877c-.666-1.588-3.572-5.421-4.872-6.614-1.669-1.532-2.422-.896-4.759-.823-5.811.182-11.751-.229-17.359-1.861-2.252-.655-4.495-1.552-6.623-2.534-1.745-.805-4.159-3.079-5.929-2.986-1.508.08-4.487,1.708-6.048,2.149-2.292.648-2.478.344-1.998,2.791.905,4.606,4.887,9.134,8.63,11.675,2.094,1.421,4.412,2.466,6.665,3.6,2.338,1.177,3.039,1.901,5.12.396,4.233-3.062,6.778-5.321,12.298-6.265,2.839-.486,5.54-.761,8.411-.303,1.102.176,5.922,2.384,6.463.775Zm226.067-8.103c-3.173.035-2.631.282-4.209,2.972-1.116,1.903-3.274,3.062-1.739,4.906,1.416,1.703,6.089,3.105,8.043,4.113,2.289,1.18,4.658,3.383,6.856,1.864,1.617-1.117,2.692-3.183,4.566-4.3,2.161-1.287,4.585-2.031,7.047-2.485,2.812-.519,5.649-.593,8.462-.036,2.053.406,4.178,1.997,6.117,1.041,2.104-1.038,7.226-9.792,5.801-12.051-.61-.966-5.033-1.666-6.215-2.064-2.342-.789-2.132-.777-4.447.672-4.158,2.601-9.076,4.076-13.82,5.201-4.383,1.039-12.301,2.245-16.462.168Zm-155.971-71.652c15.611,1.126,14.717-24.381-.752-24.027-15.581.357-14.248,24.053.752,24.027Zm73.531,0c15.497,1.08,15.668-23.946.289-23.977-15.54-.031-15.551,24.738-.289,23.977Zm-149.692-77.875c4.727.185,12.068-1.401,13.852-6.637,2.121-6.221-6.455-9.552-11.059-9.977-5.273-.487-13.601,1.135-15.314,7.147-1.935,6.791,7.414,9.823,12.52,9.467Zm262.326,139.283c-2.292-2.249-2.921-3.654-3.922-6.557-1.287-3.732-2.372-1.461-5.732-.204-3.64,1.362-7.562,1.949-11.434,2.014-1.585.027-8.922-1.441-9.857-.064-.732,1.08.42,5.012.316,6.402-.09,1.194-1.192,3.503-.743,4.477,1.009,2.19,6.824,1.331,8.801,1.263,6.25-.217,18.632-1.309,22.57-7.331Zm-36.329-156.049c-4.818.536-13.478,2.09-13.207,8.678.25,6.063,8.231,7.82,12.99,8.051,4.72.229,14.156-2.079,13.475-8.556-.606-5.76-8.604-7.886-13.258-8.173Zm-251.638,144.918c-1.235,1.614-.022,4.748-.758,6.853-1.224,3.498-4.692,4.11-.608,6.716,6.555,4.183,15.325,5.777,23.037,4.817,4.223-.526,2.336-2.175,1.921-5.742-.358-3.081,1.579-6.171-1.802-6.898-3.802-.818-7.913.264-11.893-.856-3.538-.995-6.945-2.704-9.896-4.889Zm212.772,61.517c-1.085,1.277-4.728,4.96-4.16,6.423.756,1.948,7.331,4.135,9.003,5.344,2.492,1.803,3.104,3.602,4.02,6.398,1.125,3.431,3.635,2.393,6.89,3.445,4.611,1.489,5.154,2.263,4.981-3.413-.075-2.462-.321-4.739-1.739-6.841-1.851-2.746-4.941-4.015-7.77-5.477-3.752-1.94-7.482-3.922-11.226-5.878Zm-162.329,19.398c0,4.801,2.22,2.445,5.601,1.576,3.118-.802,5.017.163,6.14-2.938,1.04-2.871,1.735-4.68,4.341-6.513,1.84-1.294,8.503-3.473,8.459-5.409-.022-.955-3.975-5.581-5.213-5.707-2.419-.245-8.069,4.159-10.104,5.239-2.487,1.32-5.501,2.512-7.276,4.817-1.988,2.58-1.82,5.862-1.948,8.935Zm156.85-111.462c.791,1.1,3.161,3.33,4.628,3.43,1.444.098,2.794-1.307,4.035-2.03,3.401-1.982,7.033-3.582,10.471-5.502,3.561-1.988,7.139-3.945,10.692-5.95,3.31-1.868,8.511-3.7,2.503-5.755-5.261-1.8-16.956-2.337-18.704,4.165-.756,2.814-1.81,5.322-3.941,7.374-3.011,2.9-6.12,2.783-9.684,4.267Zm-162.355-16.9c-2.001.038-10.395.327-9.68,3.384.357,1.526,9.463,5.166,11.077,6.062,3.561,1.976,7.203,3.777,10.815,5.655,2.547,1.325,7.843,5.767,10.633,5.368.557-.08,3.927-2.179,3.936-2.803.022-1.562-1.256-.988-2.428-1.256-3.041-.697-5.559-1.572-7.85-3.842-1.284-1.272-2.351-2.801-3.13-4.431-.701-1.467-.745-3.908-1.714-5.15-2.045-2.62-8.647-2.962-11.659-2.987Zm16.416,22.867c-.844-1.958-6.245-3.83-7.863-4.745-3.235-1.83-6.479-3.643-9.742-5.425-2.707-1.478-13.04-9.558-13.675-3.011-.637,6.558,10.066,10.272,14.477,12.678,2.557,1.395,5.748,4.042,8.78,3.837,1.273-.086,7.27-1.968,8.023-3.334Zm43.587,4.297c-1.522-.345-4.879,3.227-6.297,4.02-2.328,1.303-4.819,2.346-7.252,3.433-5.883,2.627-11.84,5.08-17.811,7.497-5.581,2.259-11.284,4.331-16.757,6.843-3.452,1.584-8.182,4.404-8.44,8.75-.146,2.452.03,2.193,2.413,1.349,2.828-1.002,5.64-3.079,8.28-4.517,6.074-3.309,12.149-6.616,18.19-9.984,5.146-2.868,10.289-5.735,15.408-8.647,3.85-2.19,11.183-3.779,12.265-8.743Zm127.538,33.403c1.385-4.112-3.533-8.411-6.729-10.069-6.056-3.143-12.672-5.579-18.987-8.164-6.123-2.507-11.875-5.296-17.801-8.213-1.469-.723-13.194-7.463-13.317-7.332.42,4.242,7.955,6.433,11.04,8.096,5.205,2.805,10.366,5.692,15.515,8.598,5.15,2.906,10.286,5.836,15.443,8.728,4.864,2.728,10.384,4.983,14.836,8.355Zm-214.965-88.45c-.383,3.091.158,12.07,4.297,12.585,1.749.218,4.7-2.461,6.288-3.165,1.775-.787,6.439-1.187,7.702-2.424,2.099-2.055-1.017-2.62-2.908-3.567-2.315-1.16-4.51-2.538-6.813-3.726-1.88-.97-5.023-3.602-7-3.834-2.315-.272-1.566,2.117-1.566,4.132Zm243.148-3.118c-.176-2.847-4.093.57-5.198,1.183-2.526,1.401-5.088,2.73-7.611,4.137-1.201.67-5.737,1.908-6.329,2.986-1.16,2.11,1.75,2.067,3.085,2.44,2.629.734,5.326,1.755,7.744,3.02,1.537.804,3.428,2.978,5.103,1.972,1.625-.976,2.874-5.763,3.081-7.53.32-2.733-.523-5.488.126-8.207Zm43.998,27.053c-.118-1.254.137-5.68-.623-6.483-1.652-1.745-2.164,1.419-2.783,2.47-2.087,3.546-5.856,5.161-9.315,7.031-4.41,2.384-8.528,5.239-12.997,7.54-2.176,1.12-4.82,1.956-6.826,3.327-1.793,1.226-1.635,1.937-2.166,3.904-.236.876-1.755,3.424.136,3.447,1.22.015,4.28-2.749,5.524-3.431,1.992-1.092,4.503-1.901,6.227-3.401,1.593-1.386,2.185-3.43,3.621-4.964,2.662-2.844,7.215-4.769,10.914-5.817,3.12-.884,8.388.765,8.287-3.625Zm-99.147,137.611c-.333-1.573-5.229-3.115-6.601-3.838-2.49-1.312-6.055-4.198-8.808-4.685-2.264-.4-4.422,1.637-6.495,2.63-1.706.818-2.939.52-1.732,2.161,1.275,1.733,6.592,3.259,8.57,4.202,2.51,1.196,5.119,2.53,7.802,3.29,2.138.605,2.377.629,4.156-.514.76-.488,3.098-2.296,3.107-3.246Zm-104.103-4.535c-.774-1.147-5.545-3.863-6.799-3.959-1.827-.14-3.626,1.362-5.214,2.21-2.341,1.25-4.683,2.5-7.033,3.735-1.872.984-4.068,1.36-3.488,3.409.2.708,2.966,3.627,3.668,3.789,1.299.299,5.221-2.167,6.552-2.75,2.311-1.012,4.615-2.04,6.839-3.234,1.586-.851,4.456-1.643,5.475-3.2Zm70.318-.277c-1.256-.84-4.373-4.113-5.8-4.14-1.5-.028-4.757,2.376-6.033,3.006-3.305,1.63-8.14,2.502-8.661,6.384-.833,6.219,2.429,3.866,6.546,1.874,4.698-2.273,9.306-4.737,13.948-7.123Zm-60.677-.16c1.132,2.71,8.412,5.206,11.01,6.508,1.23.617,5.024,3.277,6.337,3.064,1.843-.298,1.266-.762,1.208-2.851-.083-2.927-.027-3.008-2.565-4.554-2.001-1.219-4.16-2.237-6.222-3.35-1.152-.622-3.997-2.897-5.329-2.681-1.311.213-3.303,3.053-4.439,3.864Zm-143.281-128.263c-4.79-.361-13.988,4.281-12.025,10.191,1.809,5.446,9.548,6.368,14.301,6.303,5.057-.069,14.513-2.535,12.125-9.402-2.085-5.992-9.023-6.886-14.401-7.092Zm73.274,83.831c-.352,1.532,1.467,3.165,1.847,4.683.557,2.224-.431,3.739,1.225,5.463.867.902,4.078,3.004,5.299,3.223,1.845.33,2.819-.671,4.471-1.588,1.055-.586,3.738-1.201,3.543-2.658-.132-.984-3.981-2.271-4.824-2.722-3.371-1.805-7.782-5.734-11.562-6.4Zm111.874-42.633c-.521,4.684.479,9.686.213,14.449-.3,5.357-.298,5.81,4.483,3.095,1.028-.584,3.873-1.419,3.897-2.888.02-1.239-2.713-3.856-3.374-4.96-1.4-2.338-2.62-8.589-5.219-9.696Zm-25.376.266c-2.599,2.319-3.606,7.629-5.678,10.667-.646.947-2.928,3.037-2.759,4.217.188,1.303,3.748,2.58,4.826,3.205,5.389,3.123,3.8-.408,3.692-5.08-.056-2.424-.038-4.852.058-7.274.056-1.403.907-4.537-.139-5.735Zm70.302-35.363c2.672,4.076,4.366,6.219,9.429,5.079,1.292-.291,10.328-4.253,7.927-6.342-5.356,2.554-11.007,2.642-17.356,1.263Zm-135.042-1.469c-.381,6.355,16.082,10.303,16.847,1.901-5.713.758-11.364.889-16.847-1.901Zm-89.575,23.585c-3.463,1.356,1.524,4.921,3.723,5.149,1.505.155,3.893-.387,2.547-2.012-.574-.694-5.358-3.216-6.271-3.136Zm212.564,56.292c-1.359-2.293-3.471-3.748-5.226-5.555-1.807-1.861-2.104-1.877-4.508.19,3.463,1.601,6.538,3.596,9.733,5.365Zm-17.881,16.123c-.393,2.534,4.166.634,3.571-1.32-.314-1.03-2.21-1.952-3.152-1.194-.775.624.234,1.83-.419,2.515Zm-55.337-1.018c.06-2.384-2.872-2.046-3.143-.039-.12.892,1.244,2.55,2.35,2.164,1.198-.418.737-.966.793-2.125Zm-70.019.487c.312,1.996,3.239,1.065,3.152-.594-.119-2.263-3.258-1.809-3.152.594Zm251.421-71.816c-.199.014-.398.028-.597.042-.121,1.363-1.434,5.785.568,6.065,1.46.204.507-5.35.03-6.107Z"/>
        <path class="cls-4" d="m539.512,416.753c.099-.261.198-.523.296-.784.186-.15.586-.146.405-.561,0,0,.011.107.011.107,4.001-2.356,8.287-4.194,12.23-6.652.97-.605,3.015-2.643,3.988-1.401.778.992-.62,3.955-1.071,4.848-2.01,1.468-4.688,1.244-5.708,3.781-1.182,2.939-.177,7.702-.133,10.813-2.766,1.57-5.523,3.157-8.309,4.693-.49.27-1.098.327-1.652.483.369-3.85.35-7.712.341-11.572-.003-1.258.162-2.55-.401-3.755Z"/>
        <path class="cls-4" d="m418.63,397.84c-.664,4.593-6.922,1.791-6.078-1.765.954-4.021,6.176-1.48,6.078,1.765Z"/>
        <path class="cls-4" d="m385.42,280.894c-.184-5.686,8.907-5.661,8.839.037-.071,6.01-8.859,6.205-8.839-.037Z"/>
        <path class="cls-4" d="m467.396,276.573c6.041.38,5.497,8.994-.279,9.197-5.843.205-5.836-9.582.279-9.197Z"/>
      </g>
      <g id="Moofopus">
        <path class="cls-5" d="m554.583,300.264c-1.416-5.992-5.172-10.506-9.788-14.378-1.637.73-5.58-1.952-7.085-2.457-2.581-.866-5.264-1.441-7.974-1.702-5.781-.556-11.477.429-17.035,1.971-10.272,2.849-21.815,6.707-29.426-3.533-.31,3.911-.312,8.655.869,12.464.943,3.041,3.435,4.128,6.437,4.936,7.682,2.067,14.574-1.708,21.588-4.192,10.648-3.771,27.84-2.283,31.118,10.836.029,1.961-.161,3.905-.453,5.841.009,2.547-1.482,4.31-3.253,5.811-2.651,2.246-5.648,3.975-8.76,5.53-1.43.715-2.758,1.674-4.019,2.666-.548.431-.203,1.47-.849,1.996.414.213.829.427,1.245.641.672-1.04,4.817.87,5.021,1.774.334.054.552-.095.685-.393-.184-2.058,7.276-5.05,8.892-6.014,3.353-1.999,7.289-3.651,9.884-6.665-.065-2.264-.503-4.401-1.67-6.23,1.167,1.829,1.605,3.966,1.67,6.23.405-.084.715.003.825.454,3.238-4.856,3.355-10.182,2.078-15.586Z"/>
        <path class="cls-5" d="m333.154,323.867c-3.366-2.014-20.527-9.633-17.702-15.5.004-1.294-.064-2.578-.49-3.817,3.03-14.825,22.427-14.548,33.352-10.29,7.061,2.752,13.827,5.108,21.433,2.853,3.741-1.11,4.047-2.58,4.675-6.299.578-3.422,1.015-6.885.339-10.331-4.657,6.31-13.009,7.734-20.173,5.788-8.441-2.294-16.248-5.274-25.211-4.478-14.17,1.259-32.428,15.86-22.99,31.581,0,0,0,0,0,0,2.923,4.994,9.677,7.344,14.491,10.096,2.979,1.703,10.68,7.05,12.278.398Z"/>
        <path class="cls-5" d="m523.07,330.804c-12.6-5.386-26.534-9.234-35.744-20.049-2.041-2.397-3.764-5.024-5.211-7.818-.755-1.458-1.496-2.956-2.057-4.501-.342-.941-.691-4.624-1.184-5.09-1.46-1.378-3.5,1.862-5.06,2.809-2.4,1.456-5.169,2.146-7.965,2.149-12.012.013-20.768-12.251-15.861-23.52,5.057-11.614,20.085-13.876,28.625-4.717,10.985-11.155,12.776-29.655,7.857-43.974-2.312-1.167-3.764-5.219-5.369-7.214-2.315-2.876-5.033-5.249-7.655-7.818-5.441-5.329-10.666-9.695-17.696-12.872-15.057-6.803-32.907-7.624-48.424-1.824-13.122,4.904-24.044,14.299-29.636,27.298-2.993,6.958-4.179,14.502-3.911,22.051.256,7.201,1.716,17.079,6.021,23.118,10.819-9.098,28.746-3.256,29.061,11.921.309,14.927-15.749,21.936-27.453,13.803-1.479,4.91-3.495,9.426-6.597,13.526-.899,1.189-7.237,9.288-8.441,8.272-4.784,4.19-10.413,6.548-16.293,8.788-5.72,2.179-12.653,4.008-17.746,7.44-2.49,1.923-4.897,3.958-7.605,5.584-2.496,2.543-4.36,5.454-5.209,8.956,1.328.984.506,7.567.733,9.11.527,3.586,1.543,6.374,3.626,9.353l.07-.041,5.636,6.316c3.673,3.067,7.744,5.631,11.9,7.969,2.165,1.218,4.441,2.649,6.569,3.931,1.579.951,2.876,3.485,4.884,3.33,2.637-.204,6.716-5.369,5.648-7.958-1.054-2.552-8.623-4.931-10.882-6.178-4.124-2.277-7.248-3.233-10.096-7.072-2.233-3.009-5.654-5.6-7.726-8.359-.026.011-.047.026-.072.038-1.839-2.004.574-8.691,1.412-10.944,1.352-3.634,3.586-5.874,6.815-8.004,7.052-4.651,15.774-6.756,23.527-9.979,8.005-3.328,16.392-6.436,23.89-10.836,3.198-1.877,5.785-4.229,8.353-6.868,1.603-1.647,5.229-7.022,7.907-5.047,6.577-1.107.082,20.89-1.123,23.941-3.731,9.448-9.829,17.899-16.186,25.736-6.044,7.452-14.047,14.483-17.971,23.374-4.669,10.581-.466,20.199,4.91,29.401,1.162-.476,6.573-2.739,6.939-3.93.426-1.383-1.804-3.511-2.425-5.052-1.906-4.726-1.115-10.269,1.115-14.73,4.903-9.81,14.607-17.738,21.348-26.327,6.971-8.883,13.327-18.187,17.021-28.972,1.915-5.591,2.18-11.08,2.246-16.921.021-1.871-.303-4.066,1.815-4.929,2.666-1.086,3.477,1.299,3.737,3.264.681,5.146-.004,10.875.006,16.075.01,5.38.007,10.76-.031,16.14-.023,3.165-.058,6.329-.11,9.494-.023,1.361-.786,4.335.44,5.313,1.092.872,3.959-.275,5.309-.349,2.356-.128,5.303.784,7.535.377,1.906-.348,1.682.228,2.203-1.81.568-2.222-.008-5.403.005-7.7.032-5.455.117-10.909.144-16.363.029-6.096-.005-12.194-.258-18.285-.084-2.014.618-9.482,4.719-5.694,2.051,1.895,1.016,9.635,1.414,12.28.717,4.76,2.027,9.417,3.701,13.925,3.277,8.825,8.55,16.583,14.595,23.737,6.527,7.724,14.271,14.611,20.521,22.521,2.754,3.487,4.347,7.607,4.773,12.02.2,2.073.218,4.186-.358,6.204-.287,1.007-2.569,3.996-2.531,4.759.091,1.796,7.628,5.469,9.09,4.78,2.73-1.286,4.746-8.333,5.416-10.997,2.408-9.577-.463-19.219-6.216-27.017-5.683-7.703-13.421-13.685-19.34-21.255-5.854-7.487-10.845-15.615-13.439-24.821-1.183-4.196-3.183-10.326-2.59-14.73.653-4.849,5.003-4.029,5.725.234.458,2.704.232,3.886,2.214,5.989,1.681,1.784,3.912,3.263,5.964,4.572,3.971,2.532,8.297,4.507,12.555,6.501,9.703,4.545,19.606,8.644,29.388,13.012,7.496,3.347,14.063,7.741,14.83,16.636-1.442,2.893-1.779,6.033-3.705,8.765-2.111,2.994-5.206,4.97-8.251,6.901-3.443,2.183-7.527,3.723-10.804,6.11-2.031,1.479-2.378,3.677-.882,6.075.653,1.047,2.253,2.052,3.412,2.438,2.315.77,2.188.546,4.317-.687,3.277-1.899,6.663-3.607,9.96-5.474,6.232-3.527,13.861-7.944,16.485-15.041,4.417-7.241,4.334-15.782-.303-22.92-3.773-5.809-9.773-8.999-15.965-11.646Zm-122.67-115.547c-4.438,4.559-7.67,9.896-10.434,15.563-.63,1.292-1.665,2.246-2.906,2.931-2.044,1.127-5.186-1.51-5.146-4.757.474-1.631,1.637-3.41,2.693-5.223,2.798-4.807,5.791-9.46,9.786-13.421,1.865-1.849,3.721-2.075,6.017-.194,1.483,1.215,1.607,3.441-.009,5.101Z"/>
      </g>
      <g id="MINT">
        <path class="cls-2" d="m539.512,416.753c.563,1.205.398,2.497.401,3.755.009,3.86.027,7.722-.341,11.572-2.422,2.047-5.285,3.321-8.122,4.643-.752-2.296-2.862-4.126-3.422-6.378-.573-2.303.391-5.784.226-8.246,2.611-.182,4.501-1.95,6.701-3.038,1.526-.755,2.635-2.336,4.557-2.307Z"/>
        <path class="cls-2" d="m335.749,421.67c.451,2.18.649,5.51.246,7.704-.47,2.554-2.933,4.038-3.276,6.57-2.849-1.558-5.697-3.115-8.542-4.671.596-.071.926-.305.874-1.005-.358-4.849-.241-9.702-.027-14.553.903.046,1.696.466,2.334,1.008,2.165,1.836,4.76,2.913,7.204,4.26.416.194.547.88,1.187.687Z"/>
        <path class="cls-2" d="m304.973,409.637c2.62,1.086,9.284,3.52,10.964,6.046,1.627,2.446.587,8.131.17,10.949-3.693-1.823-7.244-3.197-8.726-7.357-.492-1.382-.548-2.776-1.178-4.088-1.023-2.133-2.039-2.994-1.23-5.55Z"/>
        <path class="cls-2" d="m590.67,275.551c-4.294,1.251-8.29,3.285-12.494,4.765-2.004.705-4.069,1.309-6.249,1.208,1.606-3.846,1.115-7.866,1.106-11.901-.004-1.961-.138-2.675,1.134-4.004.349-.365,4.196-2.498,4.603-2.522,4.443-.26-2.725,8.649,3.375,9.093,3.644.265,2.97-3.333,2.651-5.486-.538-3.627-.784-5.736,2.122-7.687,3.987-2.676,3.934-1.66,3.898,2.987-.035,4.516-.097,9.031-.146,13.546Z"/>
        <path class="cls-2" d="m285.389,281.848c-3.445.138-6.418-1.292-9.301-2.904-3.03-1.693-5.655-3.962-8.329-6.153,0-5.354,0-10.709,0-16.194,2.855,1.158,4.962,2.425,5.676,5.154.77,2.946-1.704,6.305-.712,8.692,1.059,2.549,4.547,2.261,5.51-.177.71-1.798-.422-6.288-.55-8.279,3.443,2.094,6.337,2.629,6.284,6.869-.043,3.459-1.196,10.24,1.423,12.992Z"/>
        <path class="cls-2" d="m290.953,281.472c-2.871-3.519-2.072-7.401-2.205-11.598-.075-2.373-.687-2.34,1.281-2.918,1.503-.441,4.428.666,6.203.44,1.661-.211,4.493-2.151,5.878-2.049,1.461.107.675-.353,1.403.92.804,1.407-.188,5.257-.024,6.932.222,2.272.866,4.482,1.859,6.535-.076.132-.151.263-.227.395-3.762.963-7.491,2.125-11.459,1.776-.186-.016-.391.19-.588.293-.785-.015-1.277-.884-2.121-.727Z"/>
        <path class="cls-2" d="m553.688,278.733c1.86-4.393,1.182-9.009,1.106-13.522,1.171-.713,4.869,1.734,6.1,2.002,1.385.302,6.425-.817,7.285-.144,1.13.883.369,5.452.355,6.8-.032,2.904-.136,5.653-2.514,7.708-.934.228-1.868.456-2.802.684-3.004-.723-6.007-1.448-8.93-2.464-.285-.307-.576-.61-.599-1.064Z"/>
      </g>
      <g id="BLUE">
        <path class="cls-3" d="m549.532,426.904c-.044-3.111-1.049-7.874.133-10.813,1.02-2.537,3.698-2.313,5.708-3.781,1.213,4.766-.023,8.938-3.034,12.702-.75.937-1.583,1.688-2.807,1.892Z"/>
        <path class="cls-3" d="m407.171,384.693c12.18,11.715,34.026,11.859,46.354.13,1.195,1.775.661,7.779.431,10.063-.298,2.964-1.665,5.521-3.823,7.548-4.932,4.634-12.365,6.328-18.917,6.352-6.771.025-14.285-1.167-19.524-5.817-5.665-5.028-3.518-11.6-4.522-18.275Zm11.458,13.147c.097-3.246-5.124-5.786-6.078-1.765-.844,3.556,5.415,6.358,6.078,1.765Z"/>
        <path class="cls-3" d="m606.512,339.25c3.925,4.125,1.31,12.435-4.075,14.963-5.486,2.576-11.222,2.734-16.97.702-1.231-.435-2.019-1.156-1.538-2.631.359-1.102-.6-1.489-1.19-2.068-.108-.185-.216-.369-.324-.554l.039.022c-.685-1.491-1.661-2.722-3.141-3.5-.794-1.325-.854-2.709-.33-4.14,8.916-7.306,17.131-5.59,27.529-2.794Z"/>
        <path class="cls-3" d="m363.753,432.27c6.086,3.645,5.983,10.051-.126,13.63-6.64,3.89-16.3,4.259-22.508-.793-.277-2.709-2.678-4.498-2.062-7.519.632-3.096,3.242-4.268,5.938-5.14,3.325-1.076,6.749-1.502,10.24-1.34,2.459.114,6.192,1.73,8.518,1.162Z"/>
        <path class="cls-3" d="m521.8,432.795c6.491,2.869,5.648,9.955.105,13.175-6.37,3.701-14.243,4.134-20.815.762-.912-3.041-4.489-3.895-4.351-7.73.117-3.249,3.012-4.924,5.696-6.028,3.359-1.382,6.496-1.262,10.067-1.349,3.25-.079,6.018,1.159,9.299,1.17Z"/>
        <path class="cls-3" d="m285.135,338.917c2.625,3.072-3.721,6.496-5.809,7.418-3.123,1.378-9.672,2-10.468,5.696-.317,1.474.657,2.739-.873,3.639-1.231.724-4.763-1.071-6.003-1.673-4.576-2.22-6.634-5.929-6.386-10.957,3.741-4.244,6.834-6.388,12.579-7.297,3.113-.493,5.917-.977,8.998-.057,2.755.822,5.185,2.472,7.962,3.232Z"/>
        <path class="cls-3" d="m573.972,247.679c-2.35-1.64-5.183-2.432-7.435-4.244-.483-2.57-2.642-4.711-.563-7.106,1.483-1.708,5.225-2.312,7.341-2.363,6.365-.153,12.169,4.533,17.452,7.55,1.317,2.641,1.018,4.565-.899,6.655-2.134,2.326-4.83,3.726-7.691,4.887-.435-.416-.87-.833-1.306-1.25-.106-.229-.259-.391-.535-.374,0,0,.055.012.055.012-1.482-1.769-3.609-2.377-5.649-3.142l.021.02c.139-.395-.102-.398-.377-.366,0,0,.025.023.025.023-.005-.303-.18-.361-.437-.302Z"/>
        <path class="cls-3" d="m395.184,323.028c-1.082,4.964-8.415,6.553-12.265,8.743-5.12,2.913-10.263,5.779-15.408,8.647-6.041,3.368-12.116,6.675-18.19,9.984-2.64,1.438-5.452,3.515-8.28,4.517-2.383.844-2.559,1.104-2.413-1.349.259-4.347,4.988-7.166,8.44-8.75,5.473-2.512,11.176-4.584,16.757-6.843,5.971-2.417,11.928-4.87,17.811-7.497,2.434-1.087,4.924-2.13,7.252-3.433,1.417-.793,4.774-4.365,6.297-4.02Z"/>
        <path class="cls-3" d="m522.722,356.43c-4.451-3.372-9.972-5.627-14.836-8.355-5.157-2.893-10.294-5.822-15.443-8.728-5.149-2.906-10.31-5.793-15.515-8.598-3.086-1.663-10.621-3.855-11.04-8.096.123-.131,11.848,6.608,13.317,7.332,5.926,2.917,11.678,5.706,17.801,8.213,6.315,2.585,12.931,5.021,18.987,8.164,3.196,1.659,8.114,5.958,6.729,10.069Z"/>
        <path class="cls-3" d="m461.971,424.713c-4.641,2.385-9.25,4.85-13.948,7.123-4.118,1.992-7.379,4.345-6.546-1.874.52-3.882,5.355-4.754,8.661-6.384,1.276-.629,4.533-3.034,6.033-3.006,1.427.027,4.545,3.301,5.8,4.14Z"/>
        <path class="cls-3" d="m401.295,424.552c1.136-.811,3.128-3.651,4.439-3.864,1.332-.217,4.177,2.058,5.329,2.681,2.062,1.114,4.221,2.131,6.222,3.35,2.538,1.546,2.483,1.627,2.565,4.554.059,2.089.635,2.553-1.208,2.851-1.314.212-5.107-2.448-6.337-3.064-2.598-1.302-9.878-3.799-11.01-6.508Z"/>
        <path class="cls-3" d="m589.107,321.076c3.332.52,6.663.523,9.992-.024.228,1.538,1.304,6.892.382,8.173-1.029,1.431-3.647.226-5.181.204-1.469-.021-4.054.984-5.106-.135-.994-1.057-.106-6.994-.088-8.219Z"/>
        <path class="cls-3" d="m477.009,410.479c-.222.452-.767.699-.802,1.27-.596.16-.72.729-1.006,1.157-2.054.936-.652,2.167-.926,3.624-.444,2.357-.425,2.081-2.708,3.504-1.971,1.229-3.27,2.634-5.563,1.882-1.531-.502-3.641-2.656-4.663-3.853,5.451-2.494,10.316-5.53,15.667-7.584Z"/>
        <path class="cls-3" d="m387.607,411.255c2.127.478,3.833,1.846,5.757,2.754,2.201,1.039,4.311,2.27,6.473,3.392,1.496.776,1.557,1.163.261,2.144q-4.054,3.069-8.518.454c-.551-.323-1.063-.742-1.65-.966-1.47-.561-1.684-1.178-.618-2.501.854-1.059.918-2.398-.607-3.222-.031-.864-.682-1.397-1.098-2.055Z"/>
        <path class="cls-3" d="m488.088,302.391c6.349,1.379,12,1.291,17.356-1.263,2.401,2.089-6.635,6.052-7.927,6.342-5.063,1.139-6.757-1.004-9.429-5.079Z"/>
      </g>
      <path id="Dark_Blue" data-name="Dark Blue" class="cls-1" d="m584.218,324.576c.477.756,1.43,6.311-.03,6.107-2.001-.279-.689-4.701-.568-6.065.199-.014.398-.028.597-.042Z"/>
      <g id="Blue">
        <path class="cls-3" d="m353.046,300.922c5.483,2.79,11.134,2.659,16.847,1.901-.765,8.402-17.227,4.454-16.847-1.901Z"/>
        <path class="cls-3" d="m476.034,380.8c-3.195-1.768-6.271-3.763-9.733-5.365,2.403-2.067,2.7-2.052,4.508-.19,1.755,1.807,3.867,3.262,5.226,5.555Z"/>
        <path class="cls-3" d="m387.051,379.695c1.577-1.844,4.811-6.878,7.294-5.404,3.16,1.875-3.379,3.69-5.089,4.861-.397.005-.676.176-.799.567-.217.128-.434.256-.651.384-.252-.136-.503-.271-.755-.407Z"/>
      </g>
      <g id="WHITE">
        <path class="cls-8" d="m429.717,362.013c8.275-.125,20.272,2.263,22.622,11.928,2.489,10.239-13.134,14.457-20.277,14.731-8.112.311-20.2-1.874-23.193-10.882-3.628-10.917,13.175-15.958,20.848-15.777Z"/>
        <path class="cls-8" d="m589.107,321.076c-1.982-2.288-5.967-2.236-8.374-4.204-2.592-2.119-4.364-5.55-3.623-8.958,1.481-6.806,11.303-9.215,17.228-9.34,6.317-.133,14.815,2.122,17.304,8.609,3.269,8.521-6.95,11.338-12.542,13.869-3.329.546-6.66.544-9.992.024Z"/>
        <path class="cls-8" d="m374.76,280.482c-4.657,6.31-13.009,7.734-20.173,5.788-8.441-2.294-16.248-5.274-25.211-4.478-14.171,1.259-32.429,15.86-22.99,31.581,2.923,4.994,9.677,7.344,14.491,10.096,2.979,1.703,10.68,7.05,12.278.398-3.366-2.014-20.527-9.633-17.702-15.5,2.498,7.164,10.673,10.603,16.918,13.871,3.142,1.644,5.05,1.861,1.862,3.634-3.119,1.735-4.714,3.341-7.928,1.712-6.594-3.342-14.573-7.165-20.113-12.094-5.574-4.96-4.929-13.34-2.118-19.613,5.721-12.769,20.89-17.778,33.843-17.895,8.294-.075,16.137,3.302,24.395,2.849,3.655-.201,6.936-1.251,10.273-2.676.813-.347,1.624-1.929,2.67-1.237,1.048.694-.206,2.805-.494,3.565Z"/>
        <path class="cls-8" d="m315.885,215.158c-5.106.356-14.455-2.676-12.52-9.467,1.713-6.012,10.04-7.633,15.314-7.147,4.604.425,13.179,3.756,11.059,9.977-1.785,5.236-9.126,6.822-13.852,6.637Z"/>
        <path class="cls-8" d="m541.882,198.392c4.654.287,12.653,2.413,13.258,8.173.681,6.478-8.756,8.785-13.475,8.556-4.759-.231-12.74-1.988-12.99-8.051-.272-6.589,8.389-8.142,13.207-8.678Z"/>
        <path class="cls-8" d="m544.795,285.886c-1.637.73-5.58-1.952-7.085-2.457-2.581-.866-5.264-1.441-7.974-1.702-5.781-.556-11.477.429-17.035,1.971-10.272,2.849-21.815,6.707-29.426-3.533-1.664-2.532-.531-3.024,1.793-2.115,2.976,1.164,5.526,2.417,8.767,2.819,5.975.741,11.638-1.055,17.459-2.042,6.135-1.041,12.578-1.151,18.723-.066,4.621.816,11.833,3.118,14.779,7.125Z"/>
        <path class="cls-8" d="m320.703,329.747c-2.986.489-9.081-4.313-11.659-5.803-3.885-2.245-7.634-4.678-9.905-8.654-2.313-4.05-4.688-5.356-8.795-7.732-3.634-2.102-9.286-6.843-13.548-7-3.085-3.261-5.671-5.797-10.058-7.109-1.965-.588-3.556-.52-4.127-2.634-.193-.714.487-5.275,1.11-5.82,1.769-1.546,2.078,1.291,2.556,2.407.827,1.93,2.06,3.412,3.669,4.749,3.575,2.971,7.978,4.947,12.071,7.077,3.955,2.058,7.872,4.216,11.947,6.033,2.607,1.163,3.399,1.271,4.101,3.973.477,1.836.525,3.492,1.433,5.24,1.929,3.712,5.579,6.121,9.058,8.226,2.334,1.412,4.756,2.674,7.151,3.978.976.532,4.751,1.842,4.995,3.067Z"/>
        <path class="cls-8" d="m590.767,241.516c-5.283-3.017-11.086-7.702-17.452-7.55-2.116.051-5.858.655-7.341,2.363-2.079,2.395.08,4.536.563,7.106-1.499.682-3.027.97-4.714.85-3.935-.28-8.293,3.935-8.389,7.949-.02.852.22,1.758-.47,2.485-2.454-3.041-.63-7.422,1.81-9.729,1.275-1.205,2.807-2.126,4.475-2.68,1.295-.43,3.872.209,4.811-.357.314-1.728-1.431-2.391-.614-4.541.389-1.023,1.54-2.176,2.317-2.876,2.423-2.18,5.785-2.784,8.961-2.522,5.239.433,14.036,4.134,16.045,9.503Z"/>
        <path class="cls-8" d="m328.694,388.321c-1.197-.193-1.386-2.818-1.864-3.694-.815-1.492-2.069-2.675-3.474-3.605-3.715-2.46-8.421-3.351-12.8-2.934-3.734.356-8.306,1.251-10.891,4.21-3.561,4.076-.171,6.353.759,10.457-3.715-1.692-5.689-5.477-4.006-9.348,2.013-4.63,7.118-6.739,11.756-7.513,4.666-.779,9.603-.324,13.852,1.86,3.279,1.686,9.037,6.33,6.669,10.568Z"/>
        <path class="cls-8" d="m258.013,296.29c5.378.207,12.316,1.1,14.401,7.092,2.389,6.867-7.068,9.333-12.125,9.402-4.753.065-12.492-.857-14.301-6.303-1.963-5.91,7.235-10.552,12.025-10.191Zm-.99,3.047c-3.739-.213-10.093,2.525-9.033,7.23,1.079,4.792,8.692,5.583,12.585,5.433,3.25-.125,12.626-2.5,11.712-7.351-.888-4.71-11.725-6.345-15.264-5.312Z"/>
        <path class="cls-8" d="m295.975,237.082c-.969,1.042-5.953-1.762-7.256-1.996-3.434-.615-6.634.204-9.84,1.443-2.865,1.108-5.9,2.651-8.091,4.858-2.279,2.295-1.931,3.873-1.846,6.916-2.025-2.48-3.102-3.445-1.077-6.773,1.874-3.08,5.617-5.14,8.746-6.732,2.997-1.525,6.546-2.94,9.959-2.663,3.009.245,8.064,1.956,9.405,4.946Z"/>
        <path class="cls-8" d="m585.642,382.833c-2.405-.359-4.629-3.425-7.132-4.246-3.036-.996-6.666-1.07-9.793-.439-2.501.504-5.645,1.812-6.991,4.165-1.862,3.256.717,4.684,1.549,7.598-8.043-3.949-2.886-11.901,3.763-13.825,3.525-1.02,7.971-1.202,11.479-.061,1.663.541,8.99,4.064,7.125,6.808Z"/>
        <path class="cls-8" d="m572.496,312.563c-5.98,3.522-12.093,6.867-18.16,10.236-5.482,3.044-12.468,5.796-17.14,10.039-4.661.138,3.333-4.357,4.375-4.936,4.088-2.272,8.173-4.55,12.251-6.841,3.818-2.145,7.632-4.296,11.403-6.523.889-.525,9.162-6.102,7.271-1.976Z"/>
        <path class="cls-8" d="m444.862,453.594c-1.25-.38-1.996-1.49-3.076-2.123-5.591-3.278-11.433-3.611-17.552-1.709-2.332.725-4.372,1.714-5.755,3.803-1.005,1.517-1.19,3.122-.539,4.807.24.622.465,1.201-.073,1.772-6.888-5.395,2.692-12.149,7.734-13.291,5.49-1.244,18.333-.837,19.26,6.742Z"/>
        <path class="cls-8" d="m285.135,338.917c-2.777-.76-5.208-2.41-7.962-3.232-3.08-.919-5.885-.435-8.998.057-5.744.909-8.838,3.053-12.579,7.297-2.559-6.06,9.62-9.572,13.334-10.014,5.197-.62,13.977.056,16.205,5.892Z"/>
        <path class="cls-8" d="m521.8,432.795c-3.281-.011-6.048-1.25-9.299-1.17-3.57.087-6.708-.033-10.067,1.349-2.683,1.104-5.579,2.779-5.696,6.028-.138,3.835,3.439,4.689,4.351,7.73-3.132-1.102-6.864-4.33-6.289-8.007.491-3.141,3.982-6.071,6.631-7.409,5.851-2.954,15.29-2.983,20.368,1.479Z"/>
        <path class="cls-8" d="m606.512,339.25c-10.398-2.796-18.613-4.511-27.529,2.794,1.424-10.507,23.109-11.016,27.529-2.794Z"/>
        <path class="cls-8" d="m357.278,390.605c-.606.737-1.27,1.066-2.335,1.117-1.499.072-2.834,1.014-4.083,1.833-6.215,4.079-12.971,7.166-19.453,10.754-2.968,1.643-6.108,2.74-9.362,3.569-1.819.464-3.698.058-5.599.231-.258.581-.225,1.432-1.156,1.482-3.416-1.691-6.988-3.136-9.687-5.975,1.448-.21,2.457.675,3.476,1.311,6.304,3.934,12.547,3.126,18.871.062,8.934-4.328,17.227-9.848,26.226-14.052.517-.242.951-.659,1.43-.986.872-.597,1.499-.548,1.672.654Z"/>
        <path class="cls-8" d="m363.753,432.27c-2.326.568-6.059-1.048-8.518-1.162-3.49-.162-6.915.264-10.24,1.34-2.696.873-5.306,2.044-5.938,5.14-.617,3.021,1.785,4.81,2.062,7.519-7.882-3.532-3.265-11.528,2.511-14.273,6.154-2.925,14.53-2.59,20.123,1.436Z"/>
        <path class="cls-8" d="m536.649,303.441c-4.6,3.024-9.552,5.337-14.309,8.074-4.216,2.426-9.507,4.708-13.068,7.961-4.887.732.777-2.894,1.548-3.331,3.353-1.901,6.716-3.785,10.068-5.688,3.05-1.732,6.094-3.469,9.165-5.162,1.134-.625,6.224-4.887,6.596-1.855Z"/>
        <path class="cls-8" d="m482.611,390.996c-4.045-.992-8.534-4.468-12.149-6.491-4.103-2.296-8.229-4.51-12.403-6.674-1.069-2.333-.225-1.829,1.557-1.492,2.932.554,6.852,3.686,9.456,5.091,2.047,1.104,15.318,6.703,13.538,9.566Z"/>
        <path class="cls-8" d="m277.288,309.481c1.763.035,2.748,1.527,4.125,2.277,4.671,2.544,9.269,5.229,13.896,7.855,6.016,3.414,12.226,6.633,16.547,12.42,1.142,1.529,2.979,2.556,4.553,3.738.872.655,2.047-.508,2.952.346-.639,3.782-7.186-2.32-8.341-3.528-3.097-3.239-6.125-6.049-9.916-8.498-3.82-2.468-7.86-4.596-11.789-6.883-3.403-1.981-9.907-4.271-12.028-7.726Z"/>
        <path class="cls-8" d="m403.024,377.579c-4.601,3.03-9.683,5.188-14.434,7.946-2.691,1.562-5.412,3.071-8.119,4.605-1.209-2.669,9.515-6.937,11.357-7.988,2.505-1.431,5.009-2.864,7.52-4.286.742-.42,4.48-3.138,3.677-.277Z"/>
        <path class="cls-8" d="m405.682,405.216c-1.969.38-3.168-1.235-4.644-1.967-4.172-2.071-8.173-4.49-12.229-6.794-.643-.365-1.672-.558-1.203-1.704.424-1.034,1.274-.772,2.074-.594,1.212,2.542,6.795,4.373,9.212,5.71,1.94,1.073,6.906,2.63,6.789,5.35Z"/>
        <path class="cls-8" d="m561.989,300.82c4.131-4.218,11.291-6.658,16.426-9.413,2.542-1.364,5.038-2.837,7.11-4.871,1.024-1.006,3.917-6.85,4.802-7.093-.915,6.373-5.636,9.399-10.829,12.325-1.959,1.104-16.127,10.223-17.51,9.052Z"/>
        <path class="cls-8" d="m470.77,394.003c.59-1.193,2.59-.026,2.811.883.455,1.873-2.834,2.582-4.13,3.247-2.816,1.445-9.463,7.128-12.583,6.151,1.013-3.611,15.977-7.222,13.902-10.282Z"/>
        <path class="cls-8" d="m306.805,253.189c-.434-.339-.66-.777-.716-1.332-.44-4.325-3.569-6.298-7.083-7.722-1.533-.622-1.806-1.227-.987-2.523,4.105.249,10.201,4.722,9.347,9.586-.123.699-.3,1.349-.561,1.992Z"/>
        <path class="cls-8" d="m268.7,282.653c1.039.078.961,1.09,1.276,1.678,1.9,3.539,5.298,5.277,8.482,7.295,4.667,2.958,9.771,5.104,14.547,7.857.891.514,1.799.87,2.777.253.807-.509,1.285-.028,1.757.528.379,1.349-.087,1.818-1.386,1.26-7.83-3.363-15.373-7.278-22.486-11.975-2.482-1.639-4.161-3.984-4.966-6.895Z"/>
        <path class="cls-8" d="m336.418,416.987c-.108-3.695,2.091-6.159,4.893-7.841,4.69-2.815,9.34-5.793,14.522-7.658,1.4-.504.891-2.069,2.068-2.379-.317-1.174-1.469-2.097-.489-3.315,1.049,2.77,2.042,4.142-.438,5.893-2.704,1.909-6.173,3.207-9.112,4.744-4.889,2.558-9.412,5.094-11.443,10.556Z"/>
        <path class="cls-8" d="m387.607,411.255c.416.658,1.067,1.192,1.098,2.055-4.298,2.958-9.125,5.19-13.714,7.652-2.065,1.108-11.194,7.288-12.737,5.663,1.778-1.694,5.006-2.484,7.15-3.63,3.059-1.636,6.088-3.326,9.141-4.975,3.463-1.871,8.665-2.708,8.215-7.233.282.156.565.311.848.467Z"/>
        <path class="cls-8" d="m508.578,424.985c-1.052-.043-1.508-.421-1.753-1.624-.372-1.825-2.145-2.786-3.643-3.488-6.679-3.132-12.757-7.352-19.403-10.532-.628-.3-1.451-.566-1.557-1.488,2.905,1.236,28.874,14.186,26.356,17.132Z"/>
        <path class="cls-8" d="m542.834,310.051c.009,2.547-1.482,4.31-3.253,5.811-2.651,2.246-5.649,3.975-8.76,5.53-1.43.715-2.758,1.674-4.019,2.666-.548.431-.203,1.47-.849,1.996-5.85-1.245,3.713-4.892,5.553-5.932,4.895-2.769,8.438-5.222,11.329-10.071Z"/>
        <path class="cls-8" d="m381.459,408.068c-.014,2.392-12.698,7.926-14.853,9.001-2.549,1.271-5.929,2.248-7.972,4.338-1.668,1.706-.707,2.61-2.977,3.067.253-4.501,7.577-6.585,10.856-8.228,5.079-2.545,9.896-5.577,14.946-8.178Z"/>
        <path class="cls-8" d="m263.471,324.508c.913-.079,5.696,2.442,6.271,3.136,1.345,1.626-1.043,2.168-2.547,2.012-2.2-.227-7.186-3.793-3.723-5.149Z"/>
        <path class="cls-8" d="m564.672,344.232c.74-1.582,2.802-1.502,4.18-2.128,2.423-1.101,4.341-3.138,6.034-5.109.952-1.108,3.736-2.991,4.1-4.225.762-2.579-2.101-1.883-2.813-4.131.726.207,5.752,2.41,5.68,3.095-.106,1.006-4.823,3.95-5.684,5.044-2.935,3.728-6.365,7.04-11.496,7.455Z"/>
        <path class="cls-8" d="m532.904,328.076c-.184-2.058,7.276-5.05,8.892-6.014,3.353-1.999,7.289-3.651,9.884-6.665.405-.084.715.003.825.454-.58,1.198-1.567,2.007-2.671,2.669-5.561,3.331-11.205,6.517-16.93,9.557Z"/>
        <path class="cls-8" d="m505.104,398.537c3.733,8.064,21.405,6.877,22.431,17.237-2.641-4.567-7.218-7.045-11.739-9.402-1.904-.993-12.925-5.327-10.693-7.835Z"/>
        <path class="cls-8" d="m476.824,413.669c4.277.696,8.749,4.373,12.536,6.396,4.034,2.155,7.875,5.022,12.038,6.834-1.715,1.164-24.672-13.014-24.574-13.231Z"/>
        <path class="cls-8" d="m571.805,281.797c.63,3.602-5.289,6.084-7.717,7.452-1.321.745-4.587,1.578-5.364,2.909-.999,1.71,1.297,3.128.533,4.84-.951-1.498-1.147-3.408-2.746-4.731,5.552-2.976,11.746-4.829,15.295-10.47Z"/>
        <path class="cls-8" d="m574.048,328.646c-.46,2.184-19.132,11.759-19.962,10.809,6.654-3.603,13.308-7.206,19.962-10.809Z"/>
        <path class="cls-8" d="m553.688,278.733c.023.454.314.757.598,1.063-.5,1.828-2.359,2.272-1.737,4.343.43,1.435,2.688,2.71,4.024,2.987l.064.085c-1.767,1.541-5.02-.895-5.769-2.803-.889-2.264,1.57-3.788,2.821-5.675Z"/>
        <path class="cls-8" d="m455.487,357.412c-2.646,1.465-5.293,2.931-7.939,4.396-3.147-.949,7.441-6.909,7.939-4.396Z"/>
        <path class="cls-8" d="m412.796,362.05c-2.262-1.66-4.797-2.848-7.234-4.209.13-1.856,5.142,1.423,6.028,1.838.687.322,4.124,2.856,1.206,2.371Z"/>
        <path class="cls-8" d="m458.154,396.923c.653-.685-.356-1.891.419-2.515.941-.758,2.838.164,3.152,1.194.595,1.954-3.963,3.854-3.571,1.32Z"/>
        <path class="cls-8" d="m302.545,288.13c-.829-1.372,2.367-2.323,3.087-3.545,1.327-2.253-.066-2.091-.511-4.455.075-.132.151-.264.226-.395,1.122.666,2.96,2.553,2.672,3.84-.27,1.208-4.415,4.486-5.475,4.555Z"/>
        <path class="cls-8" d="m563.217,282.261c.934-.228,1.868-.456,2.802-.684-.912,1.72-2.71,2.293-4.225,3.207-1.629.984-3.26,2-5.158,2.427,0,0-.064-.085-.064-.085,2.215-1.622,4.429-3.244,6.644-4.866Z"/>
        <path class="cls-8" d="m297.288,291.309c-1.943-.243-14.331-7.086-11.776-9.238,2.966,4.302,7.248,6.928,11.776,9.238Z"/>
        <path class="cls-8" d="m293.074,282.199c1.897,2.125,4.373,3.37,6.9,4.54.46.213,1.021.322,1.113.965-3.603-.988-6.789-2.733-9.566-5.235-.313-.282-.574-.552-.567-.996.843-.157,1.336.711,2.121.726Z"/>
        <path class="cls-8" d="m402.816,395.905c-.056,1.159.405,1.707-.793,2.125-1.106.386-2.471-1.272-2.35-2.164.271-2.007,3.203-2.345,3.143.039Z"/>
        <path class="cls-8" d="m550.583,344.846c.987-.621,12.625-1.16,13.305-.434-4.409.957-8.835,1.385-13.305.434Z"/>
        <path class="cls-8" d="m511.571,393.292c-.708.286-1.186-.252-1.707-.527-1.269-.669-2.554-1.227-4.024-1.194-.351-.612-.658-1.229-.15-2.113,1.012.221,5.654,2.624,5.881,3.833Z"/>
        <path class="cls-8" d="m527.198,326.695c.672-1.04,4.817.87,5.021,1.774,0,0-.019-.011-.019-.011-.328-.102-.425.088-.458.36-1.761-.18-3.079-1.309-4.545-2.123Z"/>
        <path class="cls-8" d="m547.479,342.096c.671,1.822.655,1.845-1.49,2.095-2.718-.497,1.108-2.006,1.49-2.095Z"/>
        <path class="cls-8" d="m322.449,333.281c-.208-1.114-.293-2.27-1.063-3.197,2.683-.207,3.16,1.883,1.063,3.197Z"/>
        <path class="cls-8" d="m559.496,300.448c.904-.305,1.859-.947,2.511.386-.388.445-.776.89-1.226,1.408-.659-.522-1.25-.943-1.285-1.794Z"/>
        <path class="cls-8" d="m505.848,392.554c.748,1.694.518,3.71-.536,4.696.171-1.566.046-3.166.536-4.696Z"/>
        <path class="cls-8" d="m579.312,346.184c1.48.778,2.455,2.009,3.141,3.5-1.521-.741-2.602-1.877-3.141-3.5Z"/>
        <path class="cls-8" d="m334.562,420.983c-.204-1.401.791-2.075,1.698-2.803-.201,1.159.071,2.387-.512,3.49-.64.193-.771-.493-1.187-.687Z"/>
        <path class="cls-8" d="m386.777,410.804c-1.786-.343-3.335-1.05-4.243-2.749,1.444.871,3.128,1.369,4.243,2.749Z"/>
        <path class="cls-8" d="m297.836,299.058c-.404-1.735.447-3.006,1.543-4.187-.325,1.466-.874,2.849-1.543,4.187Z"/>
        <path class="cls-8" d="m299.796,294.124c-1.272-.677-1.105-1.383-.042-2.107,1.342.676.806,1.389.042,2.107Z"/>
        <path class="cls-8" d="m319.331,336.137c.606-1.427,1.324-2.731,3.12-2.857-.962,1.038-1.68,2.341-3.12,2.857Z"/>
        <path class="cls-8" d="m475.201,412.906c.286-.428.41-.998,1.006-1.157.765.491.722,1.236.626,1.999-.71.04-1.092-.554-1.632-.842Z"/>
        <path class="cls-8" d="m576.195,328.656c-.638.296-1.106-.28-1.676-.327.699-.606,1.297-.699,1.676.327Z"/>
        <path class="cls-8" d="m527.512,415.739c.435.376.968.724.415,1.394-.241-.434-.597-.834-.415-1.394Z"/>
        <path class="cls-8" d="m321.397,330.094c-.389.173-.627.046-.722-.363.273.058.656-.106.722.363Z"/>
        <path class="cls-8" d="m298.025,291.576c-.305.032-.656.186-.769-.289.256.096.513.193.769.289Z"/>
        <path class="cls-8" d="m582.414,349.661c.108.185.216.369.324.554-.108-.185-.216-.369-.324-.554Z"/>
        <path class="cls-8" d="m540.214,415.409c.18.415-.22.411-.405.561.106-.208.023-.552.405-.561Z"/>
        <path class="cls-8" d="m574.74,248.303c2.04.765,4.167,1.374,5.649,3.142-3.249-.626-4.151.349-5.649-3.142Z"/>
        <path class="cls-8" d="m580.335,251.434c.277-.017.429.145.535.374-.178-.124-.357-.249-.535-.374Z"/>
        <path class="cls-8" d="m574.383,247.958c.275-.032.516-.029.377.366-.249.005-.365-.127-.377-.366Z"/>
        <path class="cls-8" d="m573.972,247.679c.256-.059.431-.001.437.302-.146-.101-.291-.201-.437-.302Z"/>
        <path id="_Path_" data-name="&amp;lt;Path&amp;gt;" class="cls-8" d="m332.798,396.392c-.106-2.403,3.034-2.856,3.152-.594.087,1.659-2.84,2.589-3.152.594Z"/>
      </g>
      <g id="HIGHLIGHTS">
        <path class="cls-8" d="m486.47,226.093c-2.312-1.167-3.764-5.219-5.369-7.214-2.315-2.876-5.032-5.249-7.655-7.818-5.441-5.329-10.666-9.695-17.696-12.872-15.057-6.803-32.907-7.624-48.424-1.825-13.122,4.904-24.044,14.299-29.636,27.298-2.993,6.958-4.179,14.502-3.911,22.051.256,7.201,1.716,17.079,6.021,23.118-.686,4.042-5.156-4.711-5.584-5.531-2.19-4.195-3.594-8.377-4.32-13.051-1.384-8.914-1.033-17.778,1.916-26.396,5.336-15.597,17.502-28.32,32.766-34.476,16.309-6.578,35.526-6.211,51.529,1.077,7.145,3.254,13.707,7.928,18.996,13.742,4.857,5.339,11.539,14.307,11.367,21.897Z"/>
        <path class="cls-8" d="m392.046,293.032c-15,.026-16.332-23.67-.752-24.027,15.469-.354,16.363,25.153.752,24.027Zm-6.626-12.138c-.02,6.242,8.768,6.047,8.839.037.068-5.699-9.023-5.723-8.839-.037Z"/>
        <path class="cls-8" d="m465.577,293.033c-15.262.761-15.251-24.008.289-23.977,15.379.03,15.208,25.057-.289,23.977Zm1.818-16.46c-6.115-.385-6.122,9.402-.279,9.197,5.776-.203,6.32-8.817.279-9.197Z"/>
        <path class="cls-8" d="m401.71,305.882c6.577-1.107.082,20.89-1.123,23.941-3.731,9.448-9.829,17.899-16.186,25.736-6.044,7.452-14.047,14.483-17.971,23.374-4.669,10.581-.466,20.199,4.91,29.401-1.272,2.837-7.21-7.398-7.83-8.878-2.014-4.808-2.461-9.934-1.541-15.049,1.793-9.961,7.991-17.389,14.816-24.448,6.997-7.237,13.44-15.264,18.334-24.089,2.668-4.81,4.578-9.943,5.815-15.301.79-3.423,3.092-11.544.776-14.687Z"/>
        <path class="cls-8" d="m381.407,294.556c-1.479,4.91-3.495,9.426-6.597,13.526-.899,1.189-7.237,9.288-8.441,8.272,4.093-4.707,7.504-8.708,10.045-14.518.673-1.54,2.817-13.372,4.993-7.28Z"/>
        <path class="cls-8" d="m332.331,332.582c-2.49,1.923-4.897,3.958-7.605,5.584,2.01-2.577,4.402-4.633,7.605-5.584Z"/>
        <path class="cls-8" d="m381.915,228.995c.474-1.631,1.637-3.409,2.693-5.223,2.798-4.807,5.791-9.46,9.786-13.421,1.865-1.849,3.721-2.075,6.017-.194,1.483,1.215,1.606,3.441-.009,5.101-4.438,4.559-7.67,9.896-10.434,15.563-.63,1.292-1.665,2.246-2.906,2.931-2.044,1.127-5.186-1.51-5.146-4.757Z"/>
        <path class="cls-8" d="m319.517,347.121c1.328.984.506,7.567.733,9.11.527,3.585,1.543,6.374,3.626,9.353-.056-.079,2.206,2.614,3.29,3.249,2.848,3.838,7.025,6.517,11.15,8.793,2.259,1.247,9.829,3.626,10.882,6.178,1.069,2.589,6.305,3.123,3.668,3.327-2.008.155-4.042-1.892-5.621-2.843-2.128-1.282-4.32-2.452-6.485-3.67-4.185-2.355-8.461-4.82-12.151-7.917-6.568-5.512-13.274-16.798-9.092-25.58Z"/>
      </g>
      <g id="RED">
        <path class="cls-9" d="m455.487,357.412c2.63,3.147,5.215,6.338,7.872,9.462,2.126,2.498,2.29,2.223-.472,3.871-3.876,2.312-4.687,1.538-7.374-2.082-2.159-2.908-4.73-5.182-7.965-6.854,2.646-1.465,5.292-2.931,7.939-4.396Z"/>
        <path class="cls-9" d="m443.161,337.487c2.599,1.107,3.819,7.358,5.219,9.696.661,1.104,3.394,3.721,3.374,4.96-.024,1.469-2.869,2.304-3.897,2.888-4.78,2.715-4.782,2.261-4.483-3.095.266-4.762-.734-9.765-.213-14.449Z"/>
        <g>
          <path class="cls-9" d="m470.77,394.003c-3.66-.042-7.976-2.644-10.858-4.738-3.053-2.218-1.816-7.78-1.853-11.435,4.174,2.165,8.3,4.378,12.403,6.674,3.615,2.023,8.104,5.5,12.149,6.491,1.532,4.93-.826,10.75-5.671,13.598-6.923,4.069-14.25,7.369-21.381,11.043-5.525,2.847-11.082,5.625-16.832,8.001-1.37.566-1.938,1.563-1.883,3.165.166,4.768.146,9.542.2,14.313.011.995-.54,1.402-1.45,1.234-3.185-.586-6.355-.609-9.541.011-1.197.233-1.672-.394-1.661-1.593.045-4.881.015-9.764.073-14.645.018-1.556-1.056-2.112-2.16-2.634-11.2-5.296-22.021-11.323-32.961-17.118-4.357-2.308-7.665-5.661-9.137-10.519-.581-1.916-.781-3.86.262-5.723,2.707-1.533,5.428-3.043,8.119-4.605,4.752-2.758,9.833-4.916,14.434-7.946.05,4.076,1.531,9.498-2.143,11.979-1.941,1.311-4.406,2.703-6.565,3.611-1.206.507-3.783.24-4.637.988-.8-.177-1.65-.44-2.074.594-.469,1.146.56,1.339,1.203,1.704,4.056,2.304,8.056,4.723,12.229,6.794,1.476.732,2.675,2.347,4.644,1.967,15.658,11.475,36.084,11.563,51.186-.931,3.119.977,9.767-4.707,12.583-6.151,1.296-.665,4.585-1.374,4.13-3.247-.221-.909-2.221-2.076-2.811-.883Z"/>
          <path class="cls-9" d="m306.805,253.189c-2.177,7.414-10.846,10.251-17.743,7.846-3.915-1.365-7.13-4.402-10.603-6.59-3.069-1.934-7.287-3.164-9.518-6.14-.085-3.043-.432-4.621,1.846-6.916,2.191-2.207,5.226-3.751,8.091-4.858,3.206-1.24,6.407-2.058,9.84-1.443,1.303.233,6.286,3.038,7.256,1.996,1.989.919,2.235,2.625,2.044,4.529-.818,1.296-.546,1.902.987,2.523,3.513,1.424,6.643,3.397,7.083,7.722.056.555.282.993.716,1.332Z"/>
          <path class="cls-9" d="m328.694,388.321c.311,7.56-.228,14.235-9.843,14.331-3.36.033-7.196-1.402-9.98-3.275-2.674-1.8-6.266-4.247-8.447-6.623-.931-4.104-4.321-6.381-.759-10.457,2.585-2.958,7.157-3.854,10.891-4.21,4.379-.417,9.085.475,12.8,2.934,1.406.931,2.659,2.113,3.474,3.605.478.876.667,3.501,1.864,3.694Z"/>
          <path class="cls-9" d="m310.007,345.034c-5.469-.108-10.994-1.121-15.615-4.202-4.069-2.713-6.166-7.158-10.238-9.973-5.323-3.68-11.214-6.754-16.832-9.959-.854-.487-4.703-1.793-4.565-3.025.118-1.054,4.955-1.373,5.919-1.733,1.735-.649,3.816-2.777,5.573-2.622,2.558.225,6.516,3.772,8.746,5.104,5.747,3.433,11.781,6.596,17.332,10.333,4.331,2.916,7.278,7.403,11.632,10.278,1.214.802,4.06,1.459,4.136,3.109.118,2.55-4.423,3.033-6.089,2.69Z"/>
          <path class="cls-9" d="m444.862,453.594c5.693,11.364-21.542,16.034-26.994,6.55.538-.571.313-1.15.073-1.772-.651-1.686-.466-3.29.539-4.807,1.383-2.089,3.423-3.078,5.755-3.803,6.119-1.902,11.961-1.569,17.552,1.709,1.08.633,1.826,1.743,3.076,2.123Z"/>
          <path class="cls-9" d="m572.496,312.563c.049,3.047,1.404,9.505-.462,12.019-1.041,1.403-4.012,2.287-5.53,3.091-2.339,1.24-4.677,2.481-7.017,3.719-4.013,2.122-8.049,4.676-12.438,5.938-5.03,1.446-6.433-1.058-9.853-4.491,4.672-4.244,11.658-6.995,17.14-10.039,6.067-3.369,12.18-6.715,18.16-10.236Z"/>
          <path class="cls-9" d="m582.177,253.058c-3.866,2.485-7.599,5.218-11.63,7.398-6.149,3.325-15.105.935-17.584-5.737.691-.727.45-1.633.47-2.485.096-4.014,4.455-8.229,8.389-7.949,1.687.12,3.215-.168,4.714-.85,2.252,1.812,5.085,2.604,7.435,4.244.146.101.291.201.437.302l-.025-.023c.012.239.128.371.377.366,0,0-.021-.02-.021-.02,1.498,3.491,2.4,2.517,5.65,3.143l-.055-.012.536.375c.435.417.871.833,1.306,1.25Z"/>
          <path class="cls-9" d="m585.642,382.833c1.742,4.924-4.994,8.456-8.79,9.327-3.148.722-11.79,1.369-13.577-2.249-.831-2.914-3.41-4.341-1.549-7.598,1.345-2.353,4.49-3.661,6.991-4.165,3.127-.631,6.757-.557,9.793.439,2.503.821,4.727,3.887,7.132,4.246Z"/>
          <path class="cls-9" d="m503.016,404.827c3.744,1.956,7.474,3.938,11.226,5.878,2.829,1.463,5.919,2.732,7.77,5.477,1.418,2.103,1.664,4.38,1.739,6.841.173,5.677-.37,4.902-4.981,3.413-3.256-1.051-5.766-.014-6.89-3.445-.916-2.796-1.528-4.595-4.02-6.398-1.672-1.209-8.247-3.396-9.003-5.344-.568-1.464,3.074-5.147,4.16-6.423Z"/>
          <path class="cls-9" d="m340.687,424.226c.128-3.074-.04-6.355,1.948-8.935,1.776-2.304,4.79-3.497,7.276-4.817,2.035-1.08,7.685-5.484,10.104-5.239,1.238.125,5.191,4.752,5.213,5.707.044,1.936-6.619,4.115-8.459,5.409-2.606,1.833-3.302,3.642-4.341,6.513-1.123,3.101-3.022,2.136-6.14,2.938-3.381.869-5.601,3.225-5.601-1.576Z"/>
          <path class="cls-9" d="m351.597,318.731c-.753,1.366-6.749,3.248-8.023,3.334-3.032.206-6.223-2.442-8.78-3.837-4.41-2.406-15.114-6.119-14.477-12.678.636-6.547,10.969,1.533,13.675,3.011,3.262,1.781,6.507,3.594,9.742,5.425,1.618.915,7.019,2.787,7.863,4.745Z"/>
          <path class="cls-9" d="m536.649,303.441c5.188,6.718-4.339,10.922-9.032,13.584-2.705,1.535-6.549,4.955-9.531,5.411-2.604.399-6.408-1.724-8.815-2.959,3.561-3.253,8.852-5.535,13.068-7.961,4.757-2.738,9.71-5.05,14.309-8.074Z"/>
          <path class="cls-9" d="m412.796,362.05c-2.773,1.633-5.274,3.478-6.974,6.255-1.336,2.182-1.792,4.011-4.529,3.654-.636-.083-4.258-2.065-4.441-2.616-.376-1.132.523-1.48,1.315-2.418,2.523-2.987,4.953-6.031,7.396-9.084,2.436,1.361,4.972,2.549,7.234,4.209Z"/>
          <path class="cls-9" d="m417.785,337.753c1.047,1.197.195,4.331.139,5.735-.096,2.423-.114,4.85-.058,7.274.108,4.671,1.697,8.203-3.692,5.08-1.077-.624-4.638-1.902-4.826-3.205-.17-1.179,2.113-3.27,2.759-4.217,2.072-3.038,3.078-8.348,5.678-10.667Z"/>
        </g>
      </g>
      <g id="MINTY">
        <path class="cls-6" d="m505.848,392.554c-.002-.328-.005-.656-.007-.983,1.47-.032,2.755.525,4.024,1.194.52.274.999.812,1.707.527,0,0,.07-.021.07-.021-.724,1.196,12.615,7.041,14.124,7.582,6.048,2.168,10.768.818,16.857.342,2.64-.206,12.582,2.079,10.813,6.066-1.426,3.213-13.645,3.869-13.209,8.255,0,0-.011-.107-.011-.107-.382.008-.299.353-.405.561-.099.261-.198.523-.297.784-1.922-.029-3.031,1.552-4.557,2.307-2.2,1.088-4.09,2.856-6.7,3.039-.677-1.618.396-3.351-.328-4.966.553-.671.02-1.018-.415-1.394l.023.035c-1.026-10.36-18.698-9.173-22.431-17.237.069-.429.139-.858.208-1.288,1.054-.986,1.284-3.002.536-4.696Z"/>
        <path class="cls-6" d="m298.025,291.576c.602.048,1.198.118,1.729.441-1.063.724-1.229,1.43.042,2.107-.139.249-.278.499-.418.747-1.096,1.181-1.948,2.453-1.543,4.187-.099.403-.198.806-.297,1.206-.472-.556-.95-1.037-1.757-.528-.979.617-1.887.261-2.777-.253-4.776-2.754-9.88-4.899-14.547-7.857-3.183-2.018-6.582-3.756-8.482-7.295-.316-.588-.238-1.6-1.276-1.678-1.771-3.148-1.15-6.525-.942-9.862,2.674,2.19,5.3,4.46,8.329,6.153,2.884,1.612,5.857,3.042,9.301,2.904.108.037.149.112.123.223-2.554,2.152,9.833,8.995,11.776,9.238,0,0-.032-.022-.032-.022.114.476.465.321.769.289Z"/>
        <path class="cls-6" d="m277.288,309.481c-.353-.24-.339-.627-.242-.935.85-2.698.602-5.352-.25-7.988,4.262.157,9.914,4.898,13.548,7,4.107,2.375,6.482,3.682,8.795,7.732,2.27,3.976,6.02,6.408,9.905,8.654,2.578,1.49,8.674,6.292,11.659,5.803,0,0-.028-.017-.027-.017.095.41.333.536.722.363,0,0-.011-.01-.011-.01.77.927.855,2.083,1.063,3.197,0,0,.001,0,.001,0-1.796.126-2.514,1.43-3.12,2.857,0,0,.032-.02.032-.02-.905-.854-2.079.309-2.952-.346-1.574-1.182-3.412-2.209-4.553-3.738-4.321-5.787-10.532-9.006-16.547-12.42-4.627-2.626-9.225-5.31-13.896-7.855-1.377-.75-2.362-2.242-4.125-2.277Z"/>
        <path class="cls-6" d="m561.989,300.82s.019.014.019.014c-.652-1.333-1.607-.691-2.511-.386-.08-1.151-.161-2.302-.24-3.451.764-1.711-1.532-3.13-.533-4.84.777-1.331,4.043-2.164,5.364-2.909,2.429-1.369,8.348-3.85,7.717-7.452-.028-.122.012-.213.122-.273,2.179.101,4.244-.502,6.249-1.208,4.204-1.48,8.2-3.513,12.494-4.765-.16,1.293.068,2.621-.343,3.892-.885.243-3.777,6.087-4.802,7.093-2.072,2.034-4.569,3.507-7.11,4.871-5.135,2.755-12.295,5.195-16.426,9.413Z"/>
        <path class="cls-6" d="m574.048,328.646c.157-.106.314-.211.471-.317.571.047,1.039.622,1.676.327,0,0-.023-.018-.022-.018.713,2.248,3.575,1.552,2.813,4.131-.364,1.234-3.149,3.117-4.1,4.225-1.693,1.971-3.611,4.008-6.034,5.109-1.378.626-3.44.546-4.18,2.128-.261.06-.523.12-.784.18-.681-.726-12.318-.187-13.305.434-1.547-.115-3.109-.121-4.594-.656,2.145-.25,2.161-.273,1.49-2.095,2.202-.88,4.404-1.76,6.607-2.64.831.95,19.502-8.625,19.962-10.809Z"/>
        <path class="cls-6" d="m477.009,410.479c1.518-1.313,3.213-2.273,5.213-2.627.106.922.93,1.187,1.557,1.488,6.646,3.18,12.724,7.401,19.403,10.532,1.497.702,3.271,1.663,3.643,3.488.245,1.203.702,1.581,1.753,1.624-2.393.638-4.787,1.277-7.181,1.915-4.163-1.812-8.004-4.68-12.038-6.834-3.787-2.023-8.259-5.7-12.536-6.396,0,0,.008.08.009.079.096-.762.139-1.508-.625-1.999.035-.57.58-.817.802-1.269Z"/>
        <path class="cls-6" d="m381.459,408.068c.354-.368.712-.44,1.076-.013.907,1.699,2.457,2.406,4.243,2.749,0,0-.018-.017-.018-.016.45,4.525-4.752,5.362-8.215,7.233-3.052,1.649-6.082,3.339-9.141,4.975-2.144,1.147-5.372,1.936-7.149,3.63-1.923-.357-3.724-1.23-5.716-1.315-.441-.019-.938-.191-.881-.837,2.269-.458,1.309-1.361,2.977-3.067,2.042-2.09,5.423-3.067,7.972-4.338,2.155-1.075,14.839-6.608,14.853-9.001Z"/>
        <path class="cls-6" d="m293.074,282.199c.196-.103.402-.309.588-.293,3.968.349,7.698-.813,11.459-1.776.445,2.363,1.838,2.201.511,4.455-.72,1.222-3.917,2.174-3.087,3.545-.79.899-.891-.56-1.458-.426-.091-.643-.653-.752-1.113-.965-2.527-1.17-5.003-2.415-6.9-4.54Z"/>
        <path class="cls-6" d="m563.217,282.261c-2.215,1.622-4.429,3.244-6.644,4.866-1.336-.277-3.594-1.552-4.024-2.987-.621-2.071,1.237-2.515,1.737-4.343,2.924,1.017,5.927,1.741,8.931,2.464Z"/>
        <path class="cls-6" d="m257.023,299.336c3.539-1.033,14.376.602,15.264,5.312.914,4.851-8.462,7.226-11.712,7.351-3.893.15-11.506-.641-12.585-5.433-1.059-4.705,5.294-7.443,9.033-7.23Z"/>
        <path class="cls-6" d="m316.472,410.177c-.394-.195-.788-.39-1.182-.585.931-.05.898-.901,1.156-1.482,1.901-.173,3.78.233,5.599-.231,3.254-.829,6.394-1.926,9.362-3.569,6.481-3.588,13.237-6.676,19.453-10.754,1.249-.819,2.584-1.762,4.083-1.833,1.065-.051,1.729-.379,2.335-1.117-.345,1.739.168,3.457.133,5.188-.979,1.218.172,2.141.489,3.315-1.177.31-.668,1.875-2.068,2.379-5.182,1.864-9.832,4.842-14.522,7.658-2.802,1.682-5.001,4.146-4.893,7.841.477.468.045.816-.158,1.194-.907.728-1.902,1.402-1.698,2.803-2.443-1.347-5.039-2.424-7.204-4.26-.639-.542-1.432-.961-2.334-1.008-.176-.273-.352-.545-.528-.817l-8.024-4.721Z"/>
      </g>
    </g>
  </g>
  <g>
    <path class="cls-7" d="m415.528,237.219c3.329,0,5.397,2.008,5.397,5.236v8.445c0,1.473-.887,2.425-2.262,2.425-1.367,0-2.25-.952-2.25-2.425v-7.585c0-1.353-.651-2.04-1.932-2.04-1.237,0-2.067.923-2.067,2.295v7.328c0,1.473-.872,2.425-2.223,2.425-1.358,0-2.236-.952-2.236-2.425v-7.503c0-1.368-.695-2.12-1.958-2.12-1.23,0-2.026.89-2.026,2.268v7.355c0,1.473-.888,2.425-2.264,2.425s-2.264-.952-2.264-2.425v-11.189c0-1.435.904-2.398,2.25-2.398.904,0,1.61.447,1.968,1.194.867-.826,2.1-1.288,3.506-1.288,1.776,0,3.213.691,4.059,1.922.961-1.23,2.489-1.922,4.306-1.922h-.003Z"/>
    <path class="cls-7" d="m437.117,244.533v1.872c0,4.291-2.729,7.064-6.973,7.064s-6.986-2.772-6.986-7.064v-1.858c0-4.276,2.743-7.039,6.986-7.039s6.973,2.757,6.973,7.026Zm-4.514.145c0-2.09-.903-3.289-2.459-3.289s-2.485,1.229-2.485,3.289v1.62c0,2.099.905,3.303,2.485,3.303,1.563,0,2.459-1.204,2.459-3.303v-1.62Z"/>
    <path class="cls-7" d="m452.916,244.533v1.872c0,4.291-2.729,7.064-6.973,7.064s-6.986-2.772-6.986-7.064v-1.858c0-4.276,2.743-7.039,6.986-7.039s6.973,2.757,6.973,7.026Zm-4.514.145c0-2.09-.903-3.289-2.459-3.289s-2.485,1.229-2.485,3.289v1.62c0,2.099.905,3.303,2.485,3.303,1.563,0,2.459-1.204,2.459-3.303v-1.62Z"/>
    <path class="cls-7" d="m461.678,234.656c-.392,0-.73,0-.73,1.061v.63h1.045c1.336,0,2.235.846,2.235,2.105s-.898,2.107-2.235,2.107h-1.003v10.171c0,1.578-.952,2.595-2.422,2.595s-2.422-1.019-2.422-2.595v-10.171h-.211c-1.335,0-2.234-.848-2.234-2.107s.897-2.105,2.234-2.105h.211v-.515c0-3.507,1.803-5.286,5.359-5.286,1.019,0,1.832.195,2.414.583l.019.013c.604.442.925,1.034.925,1.71,0,1.113-.759,1.89-1.847,1.89-.31,0-.513-.022-.719-.046-.181-.02-.35-.04-.618-.04h-.001Z"/>
  </g>
</svg>